<svg width="25" height="24" viewBox="0 0 25 24" fill="none" xmlns="http://www.w3.org/2000/svg">
<path d="M15.827 11.9999C15.827 13.9799 14.227 15.5799 12.247 15.5799C10.267 15.5799 8.66699 13.9799 8.66699 11.9999C8.66699 10.0199 10.267 8.41992 12.247 8.41992C14.227 8.41992 15.827 10.0199 15.827 11.9999Z" stroke="#292D32" stroke-width="1.5" stroke-linecap="round" stroke-linejoin="round"/>
<path d="M12.2469 20.2702C15.7769 20.2702 19.0669 18.1902 21.3569 14.5902C22.2569 13.1802 22.2569 10.8102 21.3569 9.40021C19.0669 5.80021 15.7769 3.72021 12.2469 3.72021C8.71691 3.72021 5.42691 5.80021 3.13691 9.40021C2.23691 10.8102 2.23691 13.1802 3.13691 14.5902C5.42691 18.1902 8.71691 20.2702 12.2469 20.2702Z" stroke="#292D32" stroke-width="1.5" stroke-linecap="round" stroke-linejoin="round"/>
</svg>
