<svg width="20" height="20" viewBox="0 0 20 20" fill="none" xmlns="http://www.w3.org/2000/svg">
<path d="M13.2246 1.60547C13.8695 1.58736 14.5598 1.84604 15.2959 2.45312L15.6143 2.73535C16.4704 3.54426 16.8561 4.31969 16.877 5.05664C16.8951 5.70151 16.6363 6.39183 16.0293 7.12793L15.7471 7.44629L8.90527 14.6875L8.90332 14.6895C8.65155 14.9592 8.18644 15.2267 7.79492 15.335L7.63281 15.3711L7.62988 15.3721L4.97266 15.8252C4.80246 15.8358 4.73282 15.8486 4.61621 15.8486C4.25358 15.8485 3.92666 15.7396 3.67969 15.5498L3.5791 15.4639L3.57715 15.4629L3.46289 15.3389C3.21217 15.0337 3.08432 14.6055 3.13867 14.1211L3.44727 11.4219C3.4701 11.2229 3.54564 10.9704 3.66113 10.7217C3.74794 10.5348 3.85 10.366 3.95312 10.2344L4.05664 10.1152L4.06152 10.1104L10.9033 2.86816C11.7122 2.01206 12.4877 1.62628 13.2246 1.60547ZM13.2754 2.00684C12.5534 2.00684 11.9542 2.40229 11.4268 2.91309L11.2051 3.1377L4.36328 10.3877C4.23496 10.523 4.12323 10.7177 4.04297 10.8896C3.98206 11.0202 3.92496 11.1695 3.88965 11.3115L3.8623 11.4502L3.86133 11.46L3.55273 14.1572C3.50876 14.5202 3.59034 14.8936 3.86426 15.1523C4.1054 15.3798 4.421 15.4479 4.73047 15.4258L4.8623 15.4111L4.87012 15.4102L7.55371 14.9512C7.73822 14.9194 7.94484 14.8318 8.11328 14.7412C8.23969 14.6732 8.37496 14.5869 8.48828 14.4922L8.59375 14.3945L8.59473 14.3936L15.4365 7.15137C15.9656 6.58819 16.4083 5.96613 16.4521 5.24316C16.4916 4.59034 16.2037 3.95665 15.5977 3.30762L15.3184 3.02832C14.6153 2.35272 13.9431 2.00697 13.2754 2.00684Z" fill="#2A2B2D" stroke="#2A2B2D" stroke-width="0.833333"/>
<path d="M9.88794 4.00391C9.98692 3.99072 10.0831 4.04859 10.1194 4.14453L10.1311 4.1875C10.4682 6.3192 12.1523 7.9742 14.2766 8.27441L14.4846 8.29883C14.5921 8.30937 14.6762 8.40794 14.6682 8.52148C14.6499 8.62812 14.5536 8.70873 14.4504 8.70898H14.4163C12.0879 8.47037 10.2034 6.74826 9.75122 4.46875L9.71216 4.24512C9.69801 4.13463 9.77095 4.02747 9.88794 4.00391Z" fill="#2A2B2D" stroke="#2A2B2D" stroke-width="0.833333"/>
<path d="M17.5 18.957H2.5C2.15833 18.957 1.875 18.6737 1.875 18.332C1.875 17.9904 2.15833 17.707 2.5 17.707H17.5C17.8417 17.707 18.125 17.9904 18.125 18.332C18.125 18.6737 17.8417 18.957 17.5 18.957Z" fill="#2A2B2D"/>
</svg>
