<svg width="20" height="21" viewBox="0 0 20 21" fill="none" xmlns="http://www.w3.org/2000/svg">
<path d="M6.04169 5.84489H13.9584V4.17822C13.9584 2.51156 13.3334 1.67822 11.4584 1.67822H8.54169C6.66669 1.67822 6.04169 2.51156 6.04169 4.17822V5.84489Z" stroke="#1794C0" stroke-width="1.25" stroke-miterlimit="10" stroke-linecap="round" stroke-linejoin="round"/>
<path d="M13.3334 12.5117V15.8451C13.3334 17.5117 12.5 18.3451 10.8334 18.3451H9.16669C7.50002 18.3451 6.66669 17.5117 6.66669 15.8451V12.5117H13.3334Z" stroke="#1794C0" stroke-width="1.25" stroke-miterlimit="10" stroke-linecap="round" stroke-linejoin="round"/>
<path d="M17.5 8.34521V12.5119C17.5 14.1785 16.6667 15.0119 15 15.0119H13.3333V12.5119H6.66667V15.0119H5C3.33333 15.0119 2.5 14.1785 2.5 12.5119V8.34521C2.5 6.67855 3.33333 5.84521 5 5.84521H15C16.6667 5.84521 17.5 6.67855 17.5 8.34521Z" stroke="#1794C0" stroke-width="1.25" stroke-miterlimit="10" stroke-linecap="round" stroke-linejoin="round"/>
<path d="M14.1666 12.5117H13.1583H5.83331" stroke="#1794C0" stroke-width="1.25" stroke-miterlimit="10" stroke-linecap="round" stroke-linejoin="round"/>
<path d="M5.83331 9.17822H8.33331" stroke="#1794C0" stroke-width="1.25" stroke-miterlimit="10" stroke-linecap="round" stroke-linejoin="round"/>
</svg>
