<svg width="18" height="19" viewBox="0 0 18 19" fill="none" xmlns="http://www.w3.org/2000/svg">
<path d="M15.75 4.49658C13.2525 4.24908 10.74 4.12158 8.235 4.12158C6.75 4.12158 5.265 4.19658 3.78 4.34658L2.25 4.49658" stroke="#D53636" stroke-width="1.125" stroke-linecap="round" stroke-linejoin="round"/>
<path d="M6.375 3.73922L6.54 2.75672C6.66 2.04422 6.75 1.51172 8.0175 1.51172H9.9825C11.25 1.51172 11.3475 2.07422 11.46 2.76422L11.625 3.73922" stroke="#D53636" stroke-width="1.125" stroke-linecap="round" stroke-linejoin="round"/>
<path d="M14.1375 6.8667L13.65 14.4192C13.5675 15.5967 13.5 16.5117 11.4075 16.5117H6.59255C4.50005 16.5117 4.43255 15.5967 4.35005 14.4192L3.86255 6.8667" stroke="#D53636" stroke-width="1.125" stroke-linecap="round" stroke-linejoin="round"/>
<path d="M7.74756 12.3867H10.2451" stroke="#D53636" stroke-width="1.125" stroke-linecap="round" stroke-linejoin="round"/>
<path d="M7.125 9.38672H10.875" stroke="#D53636" stroke-width="1.125" stroke-linecap="round" stroke-linejoin="round"/>
</svg>
