<svg width="397" height="196" viewBox="0 0 397 196" fill="none" xmlns="http://www.w3.org/2000/svg">
<path d="M36.9499 32.4301C36.0199 33.9501 35.1999 35.5701 34.1299 36.9901C28.1799 44.8401 25.8399 53.7101 26.0399 63.4901C26.1799 70.4801 26.1499 77.5201 25.5699 84.4801C24.8199 93.5901 18.8599 100.46 14.3999 107.93C13.2299 109.89 11.8199 111.72 10.4099 113.52C8.39992 116.09 9.13992 118.01 11.7199 119.46C13.5899 120.52 15.6099 121.31 17.4799 122.36C24.1199 126.07 25.3999 131.68 21.0799 137.86C18.6399 141.35 19.1199 142.76 23.3799 144.12C26.2199 145.03 29.1099 145.76 31.9799 146.57C32.0099 147.12 32.0399 147.67 32.0699 148.22C28.4399 149.47 24.8199 150.72 20.4899 152.21C21.9099 153.81 22.8099 155.08 23.9499 156.06C27.3899 159.01 28.5899 162.51 27.1099 166.89C26.4299 168.93 25.9799 171.04 25.4399 173.13C24.3599 177.35 25.4699 179.94 29.4099 181.66C34.4399 183.87 39.6599 183.8 44.7899 182.1C48.1699 180.98 49.6299 178.53 48.8399 174.83C47.7499 169.69 46.7699 164.53 45.8699 159.36C45.6599 158.11 45.4599 156.2 46.1499 155.57C50.3199 151.71 54.7499 148.14 59.6599 143.99C60.1899 145.95 60.2399 146.98 60.2599 147.84C60.5399 156.86 61.1399 165.71 61.2999 174.73C61.3299 176.74 61.0899 178.77 60.7499 180.76C59.5099 188.01 55.9799 191.62 48.7499 193.06C40.7299 194.66 32.8799 194.72 24.8499 192.23C16.6999 189.7 13.6199 182.39 14.9499 174.76C15.4099 172.12 16.1199 169.46 17.1799 167.02C18.5499 163.88 18.0899 161.59 15.1499 159.8C14.5799 159.45 14.0699 159 13.5599 158.56C10.1399 155.58 9.77992 153.85 12.5299 150.38C14.0899 148.41 13.7999 147.32 12.0899 145.7C8.11992 141.94 8.13992 140.89 11.4499 136.53C12.0999 135.67 12.7399 134.81 13.3699 133.94C15.3599 131.19 14.5499 129.64 11.3899 128.71C9.35992 128.11 7.30992 127.28 5.52992 126.14C0.459922 122.89 -1.02008 118.37 1.56992 112.9C3.33992 109.16 5.60992 105.58 8.13992 102.29C17.3399 90.3601 21.4099 76.9901 20.6199 61.9401C19.9499 49.0501 27.2199 40.0301 35.8199 31.8101C36.1899 32.0201 36.5599 32.2301 36.9399 32.4501L36.9499 32.4301Z" fill="#29B4C3"/>
<path d="M152.58 158.3C154.33 158.3 156.33 158.3 158.32 158.3C175.42 158.3 192.51 158.25 209.61 158.34C212.39 158.36 213.78 157.89 213.62 154.62C213.18 145.83 215.71 142.1 221.4 139.02C223.9 137.53 226.03 135.43 228.78 133.24C229.01 134.7 229.27 135.55 229.27 136.41C229.3 147.86 229.32 159.31 229.29 170.77C229.27 176.53 227.27 178.49 221.46 178.49C181.75 178.49 142.03 178.43 102.32 178.58C98.3098 178.6 97.1598 177.15 97.1898 173.51C97.2198 169.47 97.0698 165.42 96.7298 161.4C96.4998 158.72 97.6598 158.23 99.9998 158.25C110.1 158.34 120.19 158.3 130.29 158.28C134.69 158.28 137.14 156.07 137.07 152.23C137 148.83 134.88 147.18 130.29 147.12C122.62 147.01 114.95 146.86 107.28 146.94C104.36 146.97 103.22 146.14 103.31 143.03C103.45 138.19 103.06 133.34 103.04 128.49C103.04 127.4 103.51 125.46 103.98 125.39C105.29 125.2 106.72 125.75 108.08 126.09C108.43 126.18 108.83 126.55 108.96 126.88C111.24 132.47 115.93 132.17 120.76 131.99C127.08 131.75 133.41 131.81 139.73 131.74C147.89 131.65 152.58 136.24 152.59 144.35C152.59 148.76 152.59 153.16 152.59 158.29L152.58 158.3Z" fill="#29B4C3"/>
<path d="M360.92 134.65C360.92 147.72 361.05 160.79 360.84 173.85C360.79 177.14 358.44 178.55 355.01 178.55C325.52 178.5 296.04 178.56 266.55 178.59C259.41 178.59 252.28 178.65 245.15 178.6C237.57 178.55 235.16 176.15 235.08 168.25C234.92 151.68 234.88 135.1 234.78 118.53C234.75 113.68 234.23 108.77 234.84 104C235.22 101.07 236.79 97.8799 238.78 95.6599C241.58 92.5399 245.27 90.2099 249.66 86.6699C250.07 89.7599 250.54 91.6099 250.54 93.4699C250.58 113.41 250.66 133.35 250.43 153.29C250.38 157.55 251.81 158.4 255.76 158.38C284.03 158.22 312.31 158.3 340.58 158.3C345.94 158.3 345.73 158.3 345.91 153.05C345.98 150.97 346.74 148.96 348.09 147.37C351.92 142.85 356.17 138.69 360.23 134.37C360.57 134.51 360.59 134.51 360.93 134.65H360.92Z" fill="#29B4C3"/>
<path d="M320.35 180.91H297.25V195.5H320.35V180.91Z" fill="#29B4C3"/>
<path d="M188.09 180.77H164.99V195.36H188.09V180.77Z" fill="#29B4C3"/>
<path d="M213.25 180.77H190.15V195.36H213.25V180.77Z" fill="#29B4C3"/>
<path d="M84.4898 87.3001C85.0298 87.8401 85.3298 88.5701 85.3298 89.3301V175.71C85.3298 177.3 84.0498 178.58 82.4598 178.58H72.9298C71.3498 178.58 70.0598 177.29 70.0598 175.71V96.5801C70.0598 95.6801 70.4798 94.8401 71.1898 94.2901L80.7198 87.0401C81.8598 86.1701 83.4698 86.2801 84.4898 87.2901V87.3001Z" fill="#29B4C3"/>
<path d="M396.06 53.4102C395.17 54.1302 394.47 55.7702 393.79 56.7102C392.97 57.8402 392.12 58.9402 391.23 60.0202C389.54 62.0702 387.71 64.0302 385.7 65.7802C381.81 69.1602 377.19 71.5702 372.5 73.6602C362.75 78.0202 352.7 81.7202 342.37 84.4602C340.92 84.8402 339.47 85.2102 338.01 85.5502C305.34 93.2502 273.3 91.0002 242.92 76.9802C220.76 66.7302 199.62 54.2702 178.1 42.6302C161.07 33.4202 144.39 23.5702 126.02 17.0802C109.42 11.2302 92.5898 11.1102 75.4498 13.6902C63.3398 15.4902 52.0998 18.9002 42.6898 27.0402C42.3098 27.3602 41.7598 27.4502 41.2998 27.6202C48.5098 16.6702 58.0998 8.82017 70.4098 4.56017C86.0498 -0.869833 102.15 -0.579833 118.31 1.01017C142.44 3.38017 163.5 14.1902 184.52 25.2002C204.16 35.5102 223.82 45.7602 243.87 55.2402C261.94 63.7602 280.94 69.7202 301.02 71.5502C316.02 72.9402 330.85 71.9602 345.57 68.8302C356.2 66.6002 366.86 64.4302 377.49 62.1402C378.66 61.9002 379.82 61.5802 381 61.2202C383.56 60.4502 386.06 59.4602 388.43 58.2202C392.92 55.8602 395.72 53.6902 396.06 53.4202V53.4102Z" fill="#29B4C3"/>
</svg>
