<svg width="30" height="30" viewBox="0 0 30 30" fill="none" xmlns="http://www.w3.org/2000/svg">
<rect x="0.5" y="0.5" width="29" height="29" rx="3.5" fill="white"/>
<rect x="0.5" y="0.5" width="29" height="29" rx="3.5" stroke="#333333"/>
<path d="M17.6849 15.0014C17.6849 16.4864 16.4849 17.6864 14.9999 17.6864C13.5149 17.6864 12.3149 16.4864 12.3149 15.0014C12.3149 13.5164 13.5149 12.3164 14.9999 12.3164C16.4849 12.3164 17.6849 13.5164 17.6849 15.0014Z" stroke="#333333" stroke-width="1.125" stroke-linecap="round" stroke-linejoin="round"/>
<path d="M15.0001 21.2016C17.6476 21.2016 20.1151 19.6416 21.8326 16.9416C22.5076 15.8841 22.5076 14.1066 21.8326 13.0491C20.1151 10.3491 17.6476 8.78906 15.0001 8.78906C12.3526 8.78906 9.88513 10.3491 8.16763 13.0491C7.49263 14.1066 7.49263 15.8841 8.16763 16.9416C9.88513 19.6416 12.3526 21.2016 15.0001 21.2016Z" stroke="#333333" stroke-width="1.125" stroke-linecap="round" stroke-linejoin="round"/>
</svg>
