<svg width="20" height="19" viewBox="0 0 20 19" fill="none" xmlns="http://www.w3.org/2000/svg">
<path d="M16.7616 9.50946C16.7616 9.224 16.635 8.95917 16.5151 8.76032C16.3858 8.54573 16.2118 8.32419 16.021 8.10818C15.6381 7.67485 15.1386 7.2095 14.6539 6.78855C14.1663 6.36513 13.6803 5.97525 13.3174 5.69193C13.1356 5.55003 12.9839 5.43431 12.8774 5.35383C12.8241 5.31358 12.7821 5.28212 12.7532 5.26058L12.7199 5.23583L12.711 5.22929L12.708 5.22703C12.4531 5.03931 12.094 5.09348 11.9063 5.34833C11.7186 5.60316 11.773 5.96191 12.0278 6.14964L12.0375 6.15683L12.0681 6.17958C12.0952 6.19976 12.1353 6.22975 12.1864 6.26842C12.2889 6.34579 12.4357 6.45781 12.6121 6.59549C12.9655 6.87133 13.4347 7.24797 13.9023 7.65401C14.3727 8.06252 14.8284 8.48954 15.162 8.86709C15.1831 8.89097 15.2035 8.91444 15.2232 8.93748L3.96203 8.93748C3.64551 8.93748 3.38892 9.19408 3.38892 9.5106C3.38892 9.82712 3.64551 10.0837 3.96203 10.0837L15.2213 10.0837C15.2021 10.106 15.1824 10.1287 15.162 10.1518C14.8284 10.5294 14.3727 10.9564 13.9023 11.3649C13.4347 11.771 12.9655 12.1476 12.6121 12.4234C12.4357 12.5611 12.2889 12.6731 12.1864 12.7505C12.1353 12.7892 12.0952 12.8192 12.0681 12.8393L12.0375 12.8621L12.0278 12.8693C11.773 13.057 11.7186 13.4158 11.9063 13.6706C12.094 13.9254 12.4531 13.9796 12.708 13.7919L12.711 13.7896L12.7199 13.7831L12.7532 13.7584C12.7821 13.7368 12.8241 13.7053 12.8774 13.6651C12.9839 13.5846 13.1356 13.4689 13.3174 13.327C13.6803 13.0437 14.1663 12.6538 14.6539 12.2304C15.1386 11.8094 15.6381 11.3441 16.021 10.9107C16.2118 10.6947 16.3858 10.4732 16.5151 10.2586C16.6343 10.0609 16.76 9.79809 16.7616 9.5146" fill="#333333"/>
</svg>
