<svg width="19" height="19" viewBox="0 0 19 19" fill="none" xmlns="http://www.w3.org/2000/svg">
<path d="M2.82349 9.50947C2.82349 9.79493 2.95007 10.0598 3.06994 10.2586C3.19929 10.4732 3.37325 10.6947 3.56409 10.9108C3.94692 11.3441 4.44644 11.8094 4.93119 12.2304C5.41879 12.6538 5.90471 13.0437 6.26771 13.327C6.4495 13.4689 6.60117 13.5846 6.7077 13.6651C6.76097 13.7053 6.803 13.7368 6.8319 13.7584L6.86519 13.7831L6.87403 13.7896L6.87709 13.7919C7.13194 13.9796 7.49104 13.9254 7.67876 13.6706C7.86648 13.4158 7.81208 13.057 7.55726 12.8693L7.54753 12.8621L7.51693 12.8393C7.48987 12.8192 7.44981 12.7892 7.39861 12.7505C7.29619 12.6731 7.14936 12.5611 6.97297 12.4234C6.61958 12.1476 6.15032 11.771 5.68274 11.3649C5.21231 10.9564 4.75665 10.5294 4.42309 10.1518C4.402 10.128 4.38158 10.1045 4.36185 10.0814L15.623 10.0814C15.9395 10.0814 16.1961 9.82485 16.1961 9.50833C16.1961 9.19181 15.9395 8.93522 15.623 8.93522L4.36378 8.93522C4.38292 8.9129 4.40269 8.89019 4.42309 8.86709C4.75665 8.48955 5.21231 8.06252 5.68274 7.65401C6.15032 7.24797 6.61958 6.87133 6.97297 6.59549C7.14936 6.45781 7.29619 6.34579 7.39861 6.26842C7.4498 6.22975 7.48986 6.19976 7.51693 6.17958L7.54753 6.15683L7.55726 6.14964C7.81208 5.96191 7.86648 5.60316 7.67876 5.34833C7.49104 5.09348 7.13194 5.03931 6.87709 5.22703L6.87403 5.22929L6.86519 5.23583L6.8319 5.26058C6.803 5.28212 6.76097 5.31358 6.70769 5.35383C6.60117 5.43431 6.4495 5.55003 6.2677 5.69193C5.90471 5.97525 5.41879 6.36513 4.93119 6.78855C4.44644 7.2095 3.94692 7.67485 3.56409 8.10818C3.37325 8.32419 3.19929 8.54574 3.06994 8.76032C2.95079 8.95798 2.82501 9.22084 2.8235 9.50433" fill="#333333"/>
</svg>
