<svg width="18" height="18" viewBox="0 0 18 18" fill="none" xmlns="http://www.w3.org/2000/svg">
<path d="M11.6849 8.9975C11.6849 10.4825 10.4849 11.6825 8.99994 11.6825C7.51494 11.6825 6.31494 10.4825 6.31494 8.9975C6.31494 7.5125 7.51494 6.3125 8.99994 6.3125C10.4849 6.3125 11.6849 7.5125 11.6849 8.9975Z" stroke="#3B5A92" stroke-width="1.125" stroke-linecap="round" stroke-linejoin="round"/>
<path d="M9.00013 15.2016C11.6476 15.2016 14.1151 13.6416 15.8326 10.9416C16.5076 9.88406 16.5076 8.10656 15.8326 7.04906C14.1151 4.34906 11.6476 2.78906 9.00013 2.78906C6.35263 2.78906 3.88513 4.34906 2.16763 7.04906C1.49263 8.10656 1.49263 9.88406 2.16763 10.9416C3.88513 13.6416 6.35263 15.2016 9.00013 15.2016Z" stroke="#3B5A92" stroke-width="1.125" stroke-linecap="round" stroke-linejoin="round"/>
</svg>
