<svg width="24" height="24" viewBox="0 0 24 24" fill="none" xmlns="http://www.w3.org/2000/svg">
<path d="M12 1.75C17.6539 1.75 22.25 6.34614 22.25 12C22.25 17.6539 17.6539 22.25 12 22.25C6.34614 22.25 1.75 17.6539 1.75 12C1.75 6.34614 6.34614 1.75 12 1.75ZM12 2.25C6.62386 2.25 2.25 6.62386 2.25 12C2.25 17.3761 6.62386 21.75 12 21.75C17.3761 21.75 21.75 17.3761 21.75 12C21.75 6.62386 17.3761 2.25 12 2.25Z" fill="#2A2B2D" stroke="#2A2B2D"/>
<path d="M7.99976 2.75H8.99976C9.07416 2.75 9.15322 2.78845 9.2019 2.84961C9.24009 2.90537 9.25489 2.96491 9.24976 3.02051L9.23804 3.07617L9.23511 3.08203C7.38082 8.65478 7.32306 14.7703 9.06128 20.3857L9.23511 20.9277L9.23804 20.9346C9.26119 21.0015 9.25216 21.0789 9.20581 21.1514C9.1555 21.2095 9.07491 21.25 8.99976 21.25H7.99976C7.866 21.2499 7.74976 21.1338 7.74976 21C7.74976 20.8597 7.85513 20.7535 7.99194 20.75L8.64233 20.7344L8.45972 20.1094C6.91664 14.8412 6.91664 9.15879 8.45972 3.89062L8.64233 3.26562L7.99194 3.25C7.85513 3.24654 7.74976 3.14029 7.74976 3C7.74976 2.86622 7.866 2.75014 7.99976 2.75Z" fill="#2A2B2D" stroke="#2A2B2D"/>
<path d="M14.9999 21.7497C14.9199 21.7497 14.8399 21.7397 14.7599 21.7097C14.3699 21.5797 14.1499 21.1497 14.2899 20.7597C16.1699 15.1097 16.1699 8.88969 14.2899 3.22969C14.1599 2.83969 14.3699 2.40969 14.7599 2.27969C15.1599 2.14969 15.5799 2.35969 15.7099 2.74969C17.6999 8.70969 17.6999 15.2697 15.7099 21.2197C15.6099 21.5497 15.3099 21.7497 14.9999 21.7497Z" fill="#2A2B2D"/>
<path d="M12 17.1998C9.21 17.1998 6.43 16.8098 3.75 16.0198C3.74 16.4198 3.41 16.7498 3 16.7498C2.59 16.7498 2.25 16.4098 2.25 15.9998V14.9998C2.25 14.7598 2.37 14.5298 2.56 14.3898C2.76 14.2498 3.01 14.2098 3.24 14.2898C8.89 16.1698 15.12 16.1698 20.77 14.2898C21 14.2098 21.25 14.2498 21.45 14.3898C21.65 14.5298 21.76 14.7598 21.76 14.9998V15.9998C21.76 16.4098 21.42 16.7498 21.01 16.7498C20.6 16.7498 20.27 16.4298 20.26 16.0198C17.57 16.8098 14.79 17.1998 12 17.1998Z" fill="#2A2B2D"/>
<path d="M21 9.75035C20.92 9.75035 20.84 9.74035 20.76 9.71035C15.11 7.83035 8.88003 7.83035 3.23003 9.71035C2.83003 9.84035 2.41003 9.63035 2.28003 9.24035C2.16003 8.84035 2.37003 8.42035 2.76003 8.29035C8.72003 6.30035 15.28 6.30035 21.23 8.29035C21.62 8.42035 21.84 8.85035 21.7 9.24035C21.61 9.55035 21.31 9.75035 21 9.75035Z" fill="#2A2B2D"/>
</svg>
