<svg width="180" height="140" viewBox="0 0 180 140" fill="none" xmlns="http://www.w3.org/2000/svg">
<g clip-path="url(#clip0_2275_26715)">
<path d="M7.5957 127.885V123.76C7.5957 123.388 7.66062 123.042 7.79046 122.721C7.9203 122.401 8.10208 122.128 8.33146 121.899C8.56084 121.67 8.82917 121.488 9.13646 121.358C9.44374 121.228 9.777 121.172 10.1319 121.181C10.4608 121.185 10.7638 121.25 11.0494 121.375C11.3351 121.501 11.5818 121.665 11.7938 121.877C12.0059 122.089 12.1704 122.332 12.2959 122.613C12.4214 122.894 12.482 123.197 12.4863 123.518C12.4906 123.834 12.4344 124.137 12.3132 124.431C12.192 124.725 12.0275 124.981 11.8198 125.206C11.6121 125.431 11.3697 125.612 11.097 125.751C10.8244 125.889 10.5301 125.959 10.2271 125.967C10.0886 125.967 9.9631 125.967 9.85057 125.95C9.73805 125.933 9.62985 125.907 9.52598 125.872C9.4221 125.837 9.32256 125.79 9.22302 125.734C9.12347 125.677 9.0196 125.608 8.91573 125.53V127.889H7.60003L7.5957 127.885ZM10.0756 124.725C10.2314 124.725 10.3786 124.691 10.5128 124.63C10.6469 124.569 10.7681 124.483 10.8676 124.379C10.9672 124.275 11.0451 124.15 11.1014 124.011C11.1576 123.873 11.1836 123.725 11.1793 123.57C11.1749 123.409 11.1403 123.262 11.0797 123.128C11.0191 122.994 10.9326 122.873 10.8287 122.769C10.7248 122.665 10.5993 122.587 10.4608 122.531C10.3223 122.475 10.1752 122.449 10.0194 122.453C9.86788 122.457 9.72939 122.492 9.59522 122.548C9.46106 122.604 9.34853 122.687 9.24899 122.786C9.14944 122.886 9.07154 123.003 9.01528 123.137C8.95901 123.271 8.92872 123.414 8.92439 123.565C8.92006 123.721 8.94603 123.868 9.00662 124.011C9.06721 124.154 9.15377 124.279 9.25764 124.383C9.36151 124.487 9.48702 124.574 9.62985 124.634C9.77267 124.695 9.92415 124.725 10.08 124.717L10.0756 124.725Z" fill="#D3D3D3"/>
<path d="M14.1266 121.314H15.3254V127.889H14.1266V121.314Z" fill="#D3D3D3"/>
<path d="M19.2725 123.504C19.4759 123.504 19.6837 123.53 19.8957 123.591C20.1078 123.651 20.3069 123.747 20.5016 123.881C20.6964 124.015 20.8695 124.179 21.034 124.387C21.1984 124.595 21.3283 124.837 21.4408 125.123L22.4752 127.889H21.1768L20.8998 127.2C20.8176 127.313 20.7267 127.421 20.6185 127.521C20.5103 127.62 20.3891 127.711 20.2593 127.789C20.1294 127.867 19.9866 127.928 19.8308 127.975C19.675 128.023 19.5192 128.049 19.3461 128.049C19.1383 128.053 18.9393 128.031 18.7445 127.979C18.5497 127.928 18.3723 127.854 18.1992 127.754C18.026 127.655 17.8746 127.538 17.7361 127.395C17.5976 127.252 17.4764 127.101 17.3769 126.932C17.2773 126.763 17.1994 126.582 17.1431 126.382C17.0869 126.183 17.0609 125.984 17.0609 125.776C17.0609 125.469 17.1172 125.179 17.234 124.902C17.3509 124.625 17.5067 124.387 17.7101 124.179C17.9135 123.972 18.1472 123.807 18.4156 123.686C18.6839 123.565 18.9739 123.504 19.2812 123.5L19.2725 123.504ZM19.2898 124.682C19.1427 124.682 19.0042 124.707 18.8743 124.764C18.7445 124.82 18.6276 124.898 18.5281 124.993C18.4286 125.088 18.3506 125.205 18.2944 125.335C18.2381 125.465 18.2078 125.603 18.2035 125.751C18.1992 125.902 18.2208 126.049 18.2771 126.192C18.3333 126.335 18.4112 126.456 18.5108 126.56C18.6103 126.664 18.7272 126.75 18.8613 126.811C18.9955 126.871 19.1427 126.902 19.2985 126.893C19.4543 126.893 19.5971 126.858 19.7313 126.798C19.8654 126.737 19.978 126.659 20.0732 126.56C20.1684 126.46 20.2463 126.348 20.2982 126.214C20.3502 126.079 20.3761 125.945 20.3761 125.798C20.3761 125.647 20.3502 125.5 20.2939 125.365C20.2376 125.231 20.1597 125.11 20.0602 125.006C19.9606 124.902 19.8438 124.824 19.714 124.764C19.5841 124.703 19.4413 124.677 19.2898 124.677V124.682Z" fill="#D3D3D3"/>
<path d="M26.3011 124.845C26.3011 124.845 26.2881 124.836 26.2752 124.802C26.2622 124.767 26.2449 124.728 26.2146 124.685C26.1843 124.642 26.141 124.598 26.0891 124.559C26.0371 124.52 25.9635 124.499 25.8727 124.499C25.8207 124.499 25.7688 124.499 25.7212 124.512C25.6736 124.525 25.626 124.533 25.5827 124.555C25.5394 124.577 25.5091 124.603 25.4831 124.637C25.4572 124.672 25.4442 124.711 25.4399 124.759C25.4355 124.81 25.4399 124.858 25.4658 124.897C25.4918 124.936 25.5221 124.971 25.5654 125.001C25.6087 125.031 25.6519 125.053 25.7039 125.074C25.7558 125.096 25.8034 125.109 25.8554 125.122L26.4742 125.282C26.8205 125.373 27.0758 125.52 27.2446 125.737C27.4134 125.953 27.5173 126.23 27.5519 126.572C27.5736 126.784 27.5433 126.979 27.4654 127.161C27.3874 127.342 27.2749 127.494 27.1278 127.624C26.9806 127.753 26.8032 127.857 26.5998 127.935C26.3963 128.013 26.1756 128.052 25.9462 128.056C25.7125 128.065 25.5005 128.043 25.3187 127.996C25.1369 127.948 24.9768 127.883 24.8383 127.805C24.6998 127.727 24.5873 127.641 24.492 127.55C24.3968 127.459 24.3189 127.368 24.2627 127.29C24.2064 127.212 24.1631 127.139 24.1415 127.083C24.1198 127.026 24.1069 126.992 24.1112 126.987L25.1629 126.464C25.1629 126.464 25.1715 126.494 25.1845 126.55C25.1975 126.607 25.2278 126.667 25.2754 126.736C25.323 126.806 25.3923 126.866 25.4788 126.922C25.5654 126.979 25.6866 127.009 25.8424 127.009C26.0068 127.013 26.1323 126.979 26.2189 126.905C26.3055 126.832 26.3487 126.728 26.3401 126.607C26.3401 126.546 26.3228 126.494 26.2925 126.451C26.2622 126.407 26.2232 126.373 26.1756 126.343C26.128 126.312 26.0761 126.291 26.0198 126.273C25.9635 126.256 25.903 126.239 25.8424 126.226L25.3966 126.126C25.2494 126.096 25.1153 126.044 24.9941 125.975C24.8729 125.905 24.7647 125.819 24.6738 125.719C24.5829 125.62 24.5094 125.503 24.4531 125.377C24.3968 125.252 24.3665 125.109 24.3579 124.962C24.3449 124.746 24.3795 124.542 24.4617 124.36C24.544 124.179 24.6565 124.023 24.7993 123.893C24.9421 123.763 25.1109 123.664 25.3014 123.594C25.4918 123.525 25.6909 123.495 25.8986 123.503C26.0717 123.508 26.2232 123.534 26.3617 123.577C26.5002 123.62 26.6127 123.677 26.7166 123.737C26.8205 123.798 26.9027 123.867 26.972 123.941C27.0412 124.014 27.0975 124.079 27.1408 124.14C27.184 124.2 27.2143 124.252 27.2316 124.291C27.249 124.33 27.2576 124.352 27.2576 124.347L26.3141 124.841L26.3011 124.845Z" fill="#D3D3D3"/>
<path d="M30.7589 122.551V123.611H31.5639V124.767H30.7675V127.887H29.6033V124.767H28.993V123.611H29.6033V122.551H30.7589Z" fill="#D3D3D3"/>
<path d="M33.9659 122.002C34.0611 122.002 34.152 122.024 34.2342 122.058C34.3164 122.093 34.3943 122.145 34.4592 122.205C34.5242 122.266 34.5761 122.344 34.6107 122.426C34.6453 122.508 34.667 122.599 34.6713 122.699C34.6713 122.798 34.6583 122.894 34.6194 122.984C34.5804 123.075 34.5285 123.153 34.4636 123.222C34.3986 123.292 34.3207 123.348 34.2299 123.387C34.139 123.426 34.0438 123.447 33.9485 123.452C33.8533 123.456 33.7538 123.439 33.6629 123.4C33.572 123.361 33.4898 123.309 33.4162 123.24C33.3426 123.17 33.2864 123.093 33.2474 123.002C33.2085 122.911 33.1911 122.816 33.1955 122.716C33.1955 122.621 33.2214 122.53 33.2604 122.443C33.2993 122.357 33.3556 122.279 33.4249 122.214C33.4941 122.149 33.5763 122.097 33.6672 122.063C33.7581 122.028 33.8577 122.006 33.9615 122.011L33.9659 122.002ZM33.334 127.884H34.5501V123.616H33.334V127.884Z" fill="#D3D3D3"/>
<path d="M39.4278 125.022C39.4278 125.022 39.4062 125.005 39.3672 124.97C39.3283 124.936 39.272 124.897 39.2028 124.854C39.1335 124.81 39.047 124.771 38.9518 124.737C38.8565 124.702 38.744 124.68 38.6228 124.68C38.467 124.68 38.3242 124.702 38.1857 124.758C38.0472 124.815 37.9347 124.888 37.8308 124.988C37.7269 125.087 37.649 125.2 37.5884 125.334C37.5279 125.468 37.4932 125.607 37.4932 125.758C37.4889 125.91 37.5105 126.057 37.5668 126.195C37.6231 126.334 37.6966 126.455 37.7919 126.559C37.8871 126.663 38.0039 126.749 38.1381 126.81C38.2723 126.87 38.4194 126.905 38.5796 126.909C38.6834 126.914 38.7873 126.896 38.8955 126.853C39.0037 126.81 39.1032 126.762 39.1898 126.706C39.2764 126.65 39.3499 126.602 39.4019 126.554C39.4538 126.507 39.4841 126.485 39.4798 126.481L40.2631 127.26C40.0337 127.537 39.7827 127.736 39.5144 127.861C39.2461 127.987 38.9431 128.052 38.6012 128.061C38.2896 128.065 37.991 128.009 37.714 127.892C37.437 127.775 37.1903 127.61 36.9825 127.403C36.7748 127.195 36.6103 126.953 36.4891 126.68C36.368 126.407 36.3074 126.109 36.3074 125.801C36.3074 125.494 36.368 125.191 36.4935 124.91C36.619 124.628 36.7878 124.386 36.9998 124.178C37.2119 123.971 37.4543 123.806 37.7313 123.689C38.0083 123.572 38.2982 123.516 38.6012 123.529C38.8955 123.538 39.1465 123.581 39.3543 123.655C39.562 123.728 39.7351 123.815 39.8693 123.901C40.0035 123.988 40.0987 124.07 40.1636 124.144C40.2285 124.217 40.2588 124.252 40.2588 124.252L39.4235 125.027L39.4278 125.022Z" fill="#D3D3D3"/>
<path d="M45.976 122.841C45.9371 122.694 45.8635 122.577 45.7553 122.491C45.6471 122.404 45.5216 122.357 45.3658 122.348C45.2662 122.344 45.1754 122.357 45.0888 122.387C45.0022 122.417 44.9243 122.465 44.8551 122.521C44.7858 122.577 44.7339 122.651 44.6906 122.733C44.6473 122.815 44.6257 122.902 44.6257 122.997C44.6257 123.071 44.6344 123.14 44.6603 123.214C44.6863 123.287 44.7209 123.352 44.7685 123.417C44.8161 123.482 44.8724 123.538 44.9373 123.586C45.0022 123.633 45.0758 123.672 45.158 123.698L45.8981 123.949C46.1318 124.027 46.3439 124.131 46.53 124.265C46.7161 124.4 46.8806 124.551 47.0104 124.728C47.1403 124.906 47.2398 125.092 47.309 125.3C47.3783 125.507 47.4086 125.72 47.4043 125.936C47.3999 126.222 47.3437 126.494 47.2398 126.75C47.1359 127.005 46.9931 127.226 46.8157 127.42C46.6382 127.615 46.4261 127.767 46.1838 127.879C45.9414 127.992 45.6731 128.052 45.3874 128.057C45.1148 128.061 44.8724 128.026 44.6603 127.953C44.4483 127.879 44.2622 127.78 44.102 127.658C43.9419 127.537 43.812 127.403 43.6995 127.26C43.587 127.117 43.5004 126.975 43.4355 126.84C43.3706 126.706 43.323 126.585 43.2927 126.481C43.2624 126.377 43.2494 126.308 43.2537 126.274L44.5262 125.91C44.5175 126.027 44.5348 126.139 44.5781 126.248C44.6214 126.356 44.682 126.451 44.7599 126.529C44.8378 126.607 44.9287 126.672 45.0325 126.719C45.1364 126.767 45.2489 126.789 45.3658 126.78C45.4783 126.78 45.5822 126.754 45.6774 126.706C45.7726 126.659 45.8548 126.598 45.9241 126.52C45.9933 126.442 46.0453 126.351 46.0842 126.252C46.1232 126.152 46.1405 126.044 46.1405 125.932C46.1405 125.815 46.1232 125.711 46.0799 125.62C46.0366 125.529 45.976 125.451 45.8981 125.386C45.8202 125.321 45.7293 125.261 45.6211 125.209C45.5129 125.157 45.4004 125.109 45.2792 125.062L44.6647 124.819C44.4309 124.728 44.2319 124.616 44.0674 124.473C43.9029 124.33 43.7644 124.179 43.6606 124.014C43.5567 123.85 43.4788 123.681 43.4312 123.499C43.3836 123.318 43.3663 123.149 43.3749 122.976C43.3879 122.716 43.4485 122.469 43.5567 122.236C43.6649 122.002 43.8034 121.803 43.9808 121.63C44.1583 121.456 44.3574 121.322 44.5911 121.223C44.8248 121.123 45.0672 121.08 45.3312 121.084C45.7986 121.097 46.1838 121.227 46.4911 121.474C46.7983 121.72 47.0321 122.071 47.1965 122.525L45.976 122.837V122.841Z" fill="#D3D3D3"/>
<path d="M50.2218 123.613V126.158C50.2218 126.357 50.2781 126.517 50.3906 126.643C50.5031 126.768 50.6546 126.833 50.8451 126.838C50.9359 126.838 51.0225 126.825 51.1004 126.79C51.1783 126.755 51.2432 126.708 51.2995 126.652C51.3558 126.595 51.3947 126.526 51.425 126.448C51.4553 126.37 51.4683 126.284 51.4683 126.197V123.618H52.7147V126.249C52.7147 126.504 52.6628 126.742 52.5633 126.954C52.4637 127.167 52.3252 127.357 52.1521 127.517C51.979 127.677 51.7842 127.803 51.5548 127.898C51.3255 127.993 51.0917 128.041 50.8407 128.049C50.581 128.058 50.3387 128.011 50.1093 127.911C49.8799 127.811 49.6808 127.673 49.512 127.5C49.3433 127.327 49.2091 127.123 49.1095 126.89C49.01 126.656 48.9624 126.409 48.9624 126.154L48.9537 123.618H50.2175L50.2218 123.613Z" fill="#D3D3D3"/>
<path d="M54.2814 123.621H55.4802V124.036C55.4802 124.036 55.4932 124.027 55.5148 124.001C55.5365 123.975 55.5711 123.941 55.6144 123.902C55.6577 123.863 55.7139 123.82 55.7745 123.772C55.8351 123.724 55.9087 123.681 55.9909 123.642C56.1034 123.586 56.203 123.547 56.2895 123.517C56.3761 123.486 56.4497 123.469 56.5103 123.456C56.5709 123.443 56.6185 123.434 56.6531 123.434C56.6877 123.434 56.7094 123.43 56.7137 123.426V124.659C56.7137 124.659 56.6877 124.668 56.6315 124.664C56.5752 124.659 56.5103 124.664 56.428 124.681C56.3458 124.698 56.2593 124.72 56.164 124.763C56.0688 124.806 55.9779 124.871 55.8957 124.958C55.8135 125.044 55.7486 125.131 55.7009 125.218C55.6533 125.304 55.6144 125.395 55.5884 125.49C55.5625 125.585 55.5408 125.685 55.5322 125.789C55.5235 125.893 55.5192 126.001 55.5192 126.122V127.892H54.2814V123.625V123.621Z" fill="#D3D3D3"/>
<path d="M60.4011 123.494C60.7127 123.494 61.0071 123.55 61.284 123.676C61.561 123.801 61.7991 123.97 62.0025 124.182C62.2059 124.394 62.3704 124.641 62.4915 124.922C62.6127 125.204 62.669 125.498 62.669 125.81V127.623C62.669 127.857 62.6387 128.086 62.5824 128.307C62.5262 128.528 62.4439 128.735 62.3357 128.93C62.2275 129.125 62.0977 129.307 61.9462 129.467C61.7947 129.627 61.6259 129.77 61.4398 129.887C61.2537 130.003 61.0503 130.099 60.8339 130.164C60.6175 130.228 60.3881 130.267 60.1501 130.267C59.9251 130.272 59.7087 130.25 59.5009 130.202C59.2932 130.155 59.1027 130.081 58.921 129.99C58.7392 129.9 58.5747 129.791 58.4233 129.666C58.2718 129.54 58.1376 129.406 58.0208 129.259L58.9123 128.458C59.0119 128.592 59.1287 128.709 59.2585 128.813C59.3148 128.856 59.3754 128.9 59.4403 128.939C59.5052 128.978 59.5788 129.012 59.6524 129.038C59.726 129.064 59.8082 129.086 59.8948 129.099C59.9813 129.112 60.0679 129.112 60.1631 129.103C60.3968 129.077 60.5916 129.025 60.7474 128.947C60.9032 128.869 61.0287 128.774 61.1239 128.67C61.2191 128.567 61.2884 128.454 61.336 128.341C61.3836 128.229 61.4139 128.121 61.4312 128.026C61.4485 127.93 61.4572 127.848 61.4572 127.783C61.4572 127.718 61.4572 127.684 61.4572 127.684C61.3576 127.762 61.2494 127.826 61.1326 127.883C61.033 127.93 60.9162 127.974 60.7777 128.013C60.6392 128.051 60.4963 128.064 60.3319 128.056C60.0159 128.043 59.7216 127.974 59.449 127.852C59.1763 127.731 58.9426 127.567 58.7392 127.368C58.5358 127.169 58.38 126.935 58.2631 126.667C58.1463 126.398 58.09 126.113 58.0857 125.805C58.0857 125.598 58.1073 125.394 58.1636 125.195C58.2198 124.996 58.2977 124.814 58.3973 124.645C58.4968 124.477 58.618 124.321 58.7608 124.178C58.9037 124.035 59.0551 123.918 59.2283 123.814C59.4014 123.711 59.5788 123.633 59.7779 123.576C59.977 123.52 60.1761 123.494 60.3881 123.494H60.4011ZM60.4098 124.671C60.2583 124.663 60.1155 124.684 59.9813 124.741C59.8472 124.797 59.7303 124.875 59.6264 124.974C59.5226 125.074 59.4447 125.191 59.3841 125.325C59.3235 125.459 59.2932 125.602 59.2888 125.753C59.2845 125.905 59.3148 126.052 59.3711 126.19C59.4273 126.329 59.5096 126.45 59.6091 126.558C59.7087 126.667 59.8298 126.744 59.9683 126.805C60.1068 126.866 60.254 126.892 60.4098 126.887C60.5699 126.883 60.7127 126.848 60.8426 126.792C60.9724 126.736 61.085 126.658 61.1802 126.558C61.2754 126.459 61.3446 126.346 61.3966 126.221C61.4485 126.095 61.4788 125.957 61.4831 125.81C61.4875 125.658 61.4658 125.515 61.4182 125.377C61.3706 125.238 61.297 125.121 61.2018 125.018C61.1066 124.914 60.9941 124.831 60.8556 124.771C60.7171 124.71 60.5699 124.676 60.4055 124.671H60.4098Z" fill="#D3D3D3"/>
<path d="M68.1264 127.373C68.1264 127.373 68.1091 127.386 68.0702 127.421C68.0312 127.455 67.9793 127.499 67.91 127.546C67.8408 127.594 67.7542 127.65 67.6547 127.711C67.5551 127.771 67.4426 127.828 67.3171 127.875C67.1916 127.923 67.0618 127.966 66.9146 128.001C66.7675 128.035 66.6203 128.053 66.4645 128.048C66.1572 128.048 65.8672 127.983 65.5989 127.867C65.3306 127.75 65.0925 127.585 64.8891 127.382C64.6857 127.178 64.5256 126.94 64.4087 126.668C64.2919 126.395 64.2356 126.096 64.2356 125.78C64.2356 125.46 64.2919 125.162 64.4174 124.876C64.5429 124.59 64.7073 124.348 64.9237 124.136C65.1401 123.924 65.3825 123.759 65.6682 123.642C65.9538 123.526 66.2524 123.469 66.5727 123.482C66.9276 123.495 67.2435 123.578 67.5292 123.72C67.8148 123.863 68.0529 124.058 68.2476 124.3C68.4424 124.543 68.5895 124.824 68.6847 125.14C68.78 125.456 68.8189 125.798 68.7929 126.161H65.4647C65.547 126.386 65.6725 126.559 65.8456 126.689C66.0187 126.819 66.2265 126.884 66.4688 126.888C66.6463 126.893 66.8064 126.862 66.9492 126.798C67.0921 126.733 67.2089 126.642 67.2955 126.538L68.1264 127.373ZM67.4383 125.231C67.4383 125.231 67.4166 125.201 67.3864 125.144C67.3561 125.088 67.2998 125.023 67.2262 124.954C67.1526 124.885 67.0531 124.82 66.9319 124.763C66.8107 124.707 66.6636 124.677 66.4861 124.677C66.3303 124.677 66.1962 124.707 66.0793 124.763C65.9625 124.82 65.8672 124.885 65.7893 124.954C65.6984 125.036 65.6205 125.127 65.5556 125.231H67.4383Z" fill="#D3D3D3"/>
<path d="M70.3684 123.621H71.5673V124.036C71.5673 124.036 71.5802 124.027 71.6019 124.001C71.6235 123.975 71.6581 123.941 71.7014 123.902C71.7447 123.863 71.801 123.82 71.8616 123.772C71.9221 123.724 71.9957 123.681 72.078 123.642C72.1905 123.586 72.29 123.547 72.3766 123.517C72.4631 123.486 72.5367 123.469 72.5973 123.456C72.6579 123.443 72.7055 123.434 72.7401 123.434C72.7748 123.434 72.7964 123.43 72.8007 123.426V124.659C72.8007 124.659 72.7748 124.668 72.7185 124.664C72.6622 124.659 72.5973 124.664 72.5151 124.681C72.4328 124.698 72.3463 124.72 72.2511 124.763C72.1559 124.806 72.065 124.871 71.9827 124.958C71.9005 125.044 71.8356 125.131 71.788 125.218C71.7404 125.304 71.7014 125.395 71.6755 125.49C71.6495 125.585 71.6278 125.685 71.6192 125.789C71.6105 125.893 71.6062 126.001 71.6062 126.122V127.892H70.3684V123.625V123.621Z" fill="#D3D3D3"/>
<path d="M75.6572 123.613L76.3887 125.803L77.1634 123.613H78.4271L76.0424 130.149H74.6921L75.7438 127.491L74.2377 123.613H75.6529H75.6572Z" fill="#D3D3D3"/>
<path d="M83.7115 121.218C83.9625 121.218 84.2006 121.27 84.4213 121.36C84.642 121.451 84.8411 121.577 85.0142 121.737C85.1874 121.897 85.3215 122.083 85.4211 122.3C85.5206 122.516 85.5769 122.75 85.5812 122.996C85.5812 123.235 85.5552 123.438 85.4903 123.611C85.4254 123.784 85.3432 123.927 85.2393 124.048C85.1354 124.169 85.0272 124.265 84.9104 124.338C84.7935 124.412 84.681 124.468 84.5814 124.507C84.4819 124.546 84.3953 124.572 84.3261 124.585C84.2568 124.598 84.2222 124.602 84.2265 124.598L85.0792 125.515L85.9967 124.243L87.0224 125.009L85.9101 126.467L87.2431 127.874H85.5639L85.1397 127.45C85.0272 127.558 84.9147 127.649 84.8022 127.718C84.6896 127.788 84.5685 127.848 84.4473 127.891C84.3261 127.935 84.1919 127.969 84.0578 127.987C83.9236 128.004 83.7764 128.017 83.6206 128.021C83.4172 128.026 83.2181 128.004 83.0234 127.948C82.8286 127.891 82.6512 127.813 82.4781 127.71C82.3049 127.606 82.1535 127.489 82.0106 127.346C81.8678 127.203 81.751 127.056 81.6514 126.887C81.5519 126.719 81.4783 126.55 81.4264 126.364C81.3744 126.178 81.3528 125.996 81.3571 125.81C81.3614 125.632 81.3831 125.472 81.4177 125.325C81.4523 125.178 81.5043 125.039 81.5735 124.905C81.6428 124.771 81.7293 124.654 81.8289 124.537C81.9284 124.42 82.0496 124.312 82.1881 124.208C82.0323 124.022 81.9241 123.832 81.8678 123.633C81.8115 123.434 81.7769 123.23 81.7726 123.014C81.7726 122.758 81.8202 122.516 81.9241 122.295C82.0279 122.075 82.1708 121.876 82.3482 121.711C82.5257 121.547 82.7334 121.421 82.9671 121.326C83.2008 121.231 83.4475 121.187 83.7072 121.192L83.7115 121.218ZM83.0147 125.087C82.9411 125.165 82.8806 125.243 82.8286 125.325C82.781 125.394 82.7377 125.472 82.6988 125.559C82.6598 125.645 82.6382 125.732 82.6339 125.814C82.6252 125.948 82.6468 126.069 82.6945 126.182C82.7421 126.294 82.8156 126.394 82.9065 126.48C82.9974 126.567 83.1013 126.636 83.2225 126.693C83.3436 126.749 83.4692 126.783 83.6033 126.796C83.6682 126.801 83.7375 126.796 83.8197 126.77C83.9019 126.744 83.9755 126.719 84.0491 126.684C84.1227 126.649 84.1833 126.619 84.2352 126.589C84.2871 126.558 84.3088 126.541 84.3088 126.537L83.0104 125.087H83.0147ZM83.6856 122.391C83.5947 122.391 83.5081 122.408 83.4302 122.438C83.3523 122.468 83.283 122.516 83.2225 122.577C83.1619 122.637 83.1143 122.706 83.0753 122.784C83.0364 122.862 83.0147 122.949 83.0104 123.035C83.0061 123.135 83.019 123.222 83.0537 123.304C83.0883 123.386 83.1402 123.455 83.2051 123.516C83.2701 123.576 83.3436 123.624 83.4302 123.659C83.5168 123.693 83.6076 123.711 83.6985 123.711C83.7894 123.711 83.876 123.693 83.9582 123.659C84.0404 123.624 84.1097 123.576 84.1703 123.516C84.2309 123.455 84.2785 123.386 84.3131 123.304C84.3477 123.222 84.365 123.135 84.365 123.044C84.365 122.953 84.3477 122.871 84.3131 122.789C84.2785 122.706 84.2265 122.637 84.166 122.581C84.1054 122.525 84.0318 122.477 83.9496 122.442C83.8673 122.408 83.7808 122.391 83.6899 122.391H83.6856Z" fill="#D3D3D3"/>
<path d="M91.6144 125.148V127.888H90.2987V121.305H91.6144V123.893H93.3716V121.305H94.6873V127.888H93.3716V125.148H91.6144Z" fill="#D3D3D3"/>
<path d="M98.4439 123.504C98.6473 123.504 98.855 123.53 99.0671 123.591C99.2792 123.651 99.4783 123.747 99.673 123.881C99.8678 124.015 100.041 124.179 100.205 124.387C100.37 124.595 100.5 124.837 100.612 125.123L101.647 127.889H100.348L100.071 127.2C99.989 127.313 99.8981 127.421 99.7899 127.521C99.6817 127.62 99.5605 127.711 99.4307 127.789C99.3008 127.867 99.158 127.928 99.0022 127.975C98.8464 128.023 98.6906 128.049 98.5175 128.049C98.3097 128.053 98.1106 128.031 97.9159 127.979C97.7211 127.928 97.5437 127.854 97.3705 127.754C97.1974 127.655 97.046 127.538 96.9075 127.395C96.769 127.252 96.6478 127.101 96.5482 126.932C96.4487 126.763 96.3708 126.582 96.3145 126.382C96.2583 126.183 96.2323 125.984 96.2323 125.776C96.2323 125.469 96.2886 125.179 96.4054 124.902C96.5223 124.625 96.6781 124.387 96.8815 124.179C97.0849 123.972 97.3186 123.807 97.5869 123.686C97.8553 123.565 98.1453 123.504 98.4525 123.5L98.4439 123.504ZM98.4612 124.682C98.314 124.682 98.1755 124.707 98.0457 124.764C97.9159 124.82 97.799 124.898 97.6995 124.993C97.5999 125.088 97.522 125.205 97.4658 125.335C97.4095 125.465 97.3792 125.603 97.3749 125.751C97.3706 125.902 97.3922 126.049 97.4485 126.192C97.5047 126.335 97.5826 126.456 97.6822 126.56C97.7817 126.664 97.8986 126.75 98.0327 126.811C98.1669 126.871 98.314 126.902 98.4699 126.893C98.6257 126.893 98.7685 126.858 98.9027 126.798C99.0368 126.737 99.1493 126.659 99.2446 126.56C99.3398 126.46 99.4177 126.348 99.4696 126.214C99.5216 126.079 99.5475 125.945 99.5475 125.798C99.5475 125.647 99.5216 125.5 99.4653 125.365C99.409 125.231 99.3311 125.11 99.2316 125.006C99.132 124.902 99.0152 124.824 98.8853 124.764C98.7555 124.703 98.6127 124.677 98.4612 124.677V124.682Z" fill="#D3D3D3"/>
<path d="M104.04 122.002C104.135 122.002 104.226 122.024 104.308 122.058C104.391 122.093 104.469 122.145 104.533 122.205C104.598 122.266 104.65 122.344 104.685 122.426C104.72 122.508 104.741 122.599 104.746 122.699C104.746 122.798 104.733 122.894 104.694 122.984C104.655 123.075 104.603 123.153 104.538 123.222C104.473 123.292 104.395 123.348 104.304 123.387C104.213 123.426 104.118 123.447 104.023 123.452C103.928 123.456 103.828 123.439 103.737 123.4C103.646 123.361 103.564 123.309 103.49 123.24C103.417 123.17 103.361 123.093 103.322 123.002C103.283 122.911 103.265 122.816 103.27 122.716C103.27 122.621 103.296 122.53 103.335 122.443C103.374 122.357 103.43 122.279 103.499 122.214C103.568 122.149 103.651 122.097 103.741 122.063C103.832 122.028 103.932 122.006 104.036 122.011L104.04 122.002ZM103.408 127.884H104.624V123.616H103.408V127.884Z" fill="#D3D3D3"/>
<path d="M106.416 123.621H107.615V124.036C107.615 124.036 107.628 124.027 107.649 124.001C107.671 123.975 107.706 123.941 107.749 123.902C107.792 123.863 107.849 123.82 107.909 123.772C107.97 123.724 108.043 123.681 108.126 123.642C108.238 123.586 108.338 123.547 108.424 123.517C108.511 123.486 108.584 123.469 108.645 123.456C108.706 123.443 108.753 123.434 108.788 123.434C108.822 123.434 108.844 123.43 108.848 123.426V124.659C108.848 124.659 108.822 124.668 108.766 124.664C108.71 124.659 108.645 124.664 108.563 124.681C108.48 124.698 108.394 124.72 108.299 124.763C108.203 124.806 108.113 124.871 108.03 124.958C107.948 125.044 107.883 125.131 107.836 125.218C107.788 125.304 107.749 125.395 107.723 125.49C107.697 125.585 107.675 125.685 107.667 125.789C107.658 125.893 107.654 126.001 107.654 126.122V127.892H106.416V123.625V123.621Z" fill="#D3D3D3"/>
<path d="M111.943 127.883V123.131C111.943 122.988 111.965 122.837 112.003 122.681C112.042 122.525 112.107 122.37 112.19 122.222C112.272 122.075 112.376 121.932 112.497 121.794C112.618 121.655 112.761 121.543 112.925 121.439C113.09 121.335 113.267 121.262 113.466 121.205C113.665 121.149 113.882 121.123 114.116 121.127C114.349 121.132 114.587 121.184 114.821 121.275C115.055 121.365 115.271 121.5 115.466 121.673C115.661 121.846 115.821 122.058 115.951 122.309C116.08 122.56 116.158 122.846 116.18 123.166C116.197 123.404 116.18 123.616 116.119 123.798C116.059 123.98 115.981 124.14 115.881 124.278C115.782 124.417 115.674 124.525 115.548 124.62C115.423 124.715 115.314 124.785 115.206 124.841C115.098 124.897 115.011 124.932 114.942 124.953C114.873 124.975 114.834 124.984 114.83 124.975L116.725 127.883H115.107L113.25 124.992V127.883H111.934H111.943ZM114.072 122.404C113.96 122.404 113.856 122.421 113.756 122.465C113.657 122.508 113.57 122.564 113.497 122.638C113.423 122.711 113.362 122.798 113.319 122.893C113.276 122.988 113.25 123.097 113.25 123.209C113.25 123.322 113.267 123.426 113.315 123.529C113.362 123.633 113.423 123.72 113.501 123.793C113.579 123.867 113.67 123.928 113.774 123.971C113.877 124.014 113.986 124.031 114.103 124.027C114.206 124.027 114.306 124.001 114.397 123.962C114.488 123.923 114.57 123.867 114.639 123.802C114.708 123.737 114.765 123.655 114.804 123.564C114.843 123.473 114.864 123.369 114.864 123.261C114.864 123.136 114.838 123.023 114.799 122.919C114.76 122.815 114.704 122.724 114.635 122.651C114.566 122.577 114.479 122.517 114.384 122.473C114.289 122.43 114.185 122.408 114.072 122.404Z" fill="#D3D3D3"/>
<path d="M121.971 127.373C121.971 127.373 121.953 127.386 121.915 127.421C121.876 127.455 121.824 127.499 121.754 127.546C121.685 127.594 121.599 127.65 121.499 127.711C121.4 127.771 121.287 127.828 121.161 127.875C121.036 127.923 120.906 127.966 120.759 128.001C120.612 128.035 120.465 128.053 120.309 128.048C120.002 128.048 119.712 127.983 119.443 127.867C119.175 127.75 118.937 127.585 118.733 127.382C118.53 127.178 118.37 126.94 118.253 126.668C118.136 126.395 118.08 126.096 118.08 125.78C118.08 125.46 118.136 125.162 118.262 124.876C118.387 124.59 118.552 124.348 118.768 124.136C118.985 123.924 119.227 123.759 119.513 123.642C119.798 123.526 120.097 123.469 120.417 123.482C120.772 123.495 121.088 123.578 121.374 123.72C121.659 123.863 121.897 124.058 122.092 124.3C122.287 124.543 122.434 124.824 122.529 125.14C122.624 125.456 122.663 125.798 122.637 126.161H119.309C119.391 126.386 119.517 126.559 119.69 126.689C119.863 126.819 120.071 126.884 120.313 126.888C120.491 126.893 120.651 126.862 120.794 126.798C120.936 126.733 121.053 126.642 121.14 126.538L121.971 127.373ZM121.283 125.231C121.283 125.231 121.261 125.201 121.231 125.144C121.2 125.088 121.144 125.023 121.071 124.954C120.997 124.885 120.897 124.82 120.776 124.763C120.655 124.707 120.508 124.677 120.331 124.677C120.175 124.677 120.041 124.707 119.924 124.763C119.807 124.82 119.712 124.885 119.634 124.954C119.543 125.036 119.465 125.127 119.4 125.231H121.283Z" fill="#D3D3D3"/>
<path d="M126.502 123.494C126.805 123.494 127.091 123.559 127.368 123.676C127.645 123.793 127.883 123.953 128.095 124.161C128.307 124.369 128.471 124.602 128.597 124.875C128.722 125.148 128.783 125.442 128.787 125.754C128.787 125.957 128.761 126.156 128.709 126.346C128.657 126.537 128.584 126.719 128.489 126.887C128.393 127.056 128.281 127.212 128.147 127.351C128.013 127.489 127.865 127.615 127.697 127.714C127.528 127.814 127.355 127.896 127.16 127.952C126.965 128.008 126.766 128.039 126.558 128.043C126.398 128.043 126.251 128.026 126.113 127.982C125.974 127.939 125.862 127.892 125.758 127.835C125.641 127.77 125.537 127.701 125.442 127.619V130.142H124.204V125.758C124.204 125.455 124.26 125.161 124.368 124.888C124.477 124.615 124.637 124.369 124.836 124.165C125.035 123.962 125.277 123.793 125.559 123.672C125.84 123.551 126.152 123.49 126.493 123.494H126.502ZM126.45 124.68C126.286 124.685 126.139 124.719 126 124.78C125.862 124.84 125.749 124.923 125.654 125.026C125.559 125.13 125.485 125.252 125.433 125.386C125.381 125.52 125.36 125.667 125.364 125.818C125.364 125.957 125.394 126.091 125.45 126.217C125.507 126.342 125.58 126.459 125.675 126.559C125.771 126.658 125.883 126.74 126.013 126.801C126.143 126.862 126.29 126.896 126.45 126.896C126.602 126.9 126.744 126.874 126.883 126.818C127.021 126.762 127.143 126.68 127.247 126.58C127.35 126.481 127.433 126.355 127.493 126.217C127.554 126.078 127.584 125.922 127.58 125.754C127.58 125.602 127.545 125.459 127.485 125.325C127.424 125.191 127.342 125.078 127.238 124.979C127.134 124.879 127.017 124.806 126.879 124.749C126.74 124.693 126.602 124.672 126.446 124.676L126.45 124.68Z" fill="#D3D3D3"/>
<path d="M130.419 121.314H131.618V127.889H130.419V121.314Z" fill="#D3D3D3"/>
<path d="M135.565 123.504C135.768 123.504 135.976 123.53 136.188 123.591C136.4 123.651 136.599 123.747 136.794 123.881C136.989 124.015 137.162 124.179 137.326 124.387C137.491 124.595 137.621 124.837 137.733 125.123L138.768 127.889H137.469L137.192 127.2C137.11 127.313 137.019 127.421 136.911 127.521C136.803 127.62 136.681 127.711 136.552 127.789C136.422 127.867 136.279 127.928 136.123 127.975C135.967 128.023 135.812 128.049 135.638 128.049C135.431 128.053 135.232 128.031 135.037 127.979C134.842 127.928 134.665 127.854 134.492 127.754C134.318 127.655 134.167 127.538 134.028 127.395C133.89 127.252 133.769 127.101 133.669 126.932C133.57 126.763 133.492 126.582 133.436 126.382C133.379 126.183 133.353 125.984 133.353 125.776C133.353 125.469 133.41 125.179 133.526 124.902C133.643 124.625 133.799 124.387 134.002 124.179C134.206 123.972 134.44 123.807 134.708 123.686C134.976 123.565 135.266 123.504 135.574 123.5L135.565 123.504ZM135.582 124.682C135.435 124.682 135.297 124.707 135.167 124.764C135.037 124.82 134.92 124.898 134.82 124.993C134.721 125.088 134.643 125.205 134.587 125.335C134.53 125.465 134.5 125.603 134.496 125.751C134.492 125.902 134.513 126.049 134.569 126.192C134.626 126.335 134.704 126.456 134.803 126.56C134.903 126.664 135.02 126.75 135.154 126.811C135.288 126.871 135.435 126.902 135.591 126.893C135.747 126.893 135.889 126.858 136.024 126.798C136.158 126.737 136.27 126.659 136.366 126.56C136.461 126.46 136.539 126.348 136.591 126.214C136.643 126.079 136.668 125.945 136.668 125.798C136.668 125.647 136.643 125.5 136.586 125.365C136.53 125.231 136.452 125.11 136.353 125.006C136.253 124.902 136.136 124.824 136.006 124.764C135.876 124.703 135.734 124.677 135.582 124.677V124.682Z" fill="#D3D3D3"/>
<path d="M143.437 125.022C143.437 125.022 143.416 125.005 143.377 124.97C143.338 124.936 143.282 124.897 143.212 124.854C143.143 124.81 143.057 124.771 142.961 124.737C142.866 124.702 142.754 124.68 142.632 124.68C142.477 124.68 142.334 124.702 142.195 124.758C142.057 124.815 141.944 124.888 141.84 124.988C141.736 125.087 141.659 125.2 141.598 125.334C141.537 125.468 141.503 125.607 141.503 125.758C141.498 125.91 141.52 126.057 141.576 126.195C141.633 126.334 141.706 126.455 141.801 126.559C141.897 126.663 142.013 126.749 142.148 126.81C142.282 126.87 142.429 126.905 142.589 126.909C142.693 126.914 142.797 126.896 142.905 126.853C143.013 126.81 143.113 126.762 143.199 126.706C143.286 126.65 143.359 126.602 143.411 126.554C143.463 126.507 143.494 126.485 143.489 126.481L144.273 127.26C144.043 127.537 143.792 127.736 143.524 127.861C143.256 127.987 142.953 128.052 142.611 128.061C142.299 128.065 142 128.009 141.723 127.892C141.446 127.775 141.2 127.61 140.992 127.403C140.784 127.195 140.62 126.953 140.499 126.68C140.377 126.407 140.317 126.109 140.317 125.801C140.317 125.494 140.377 125.191 140.503 124.91C140.629 124.628 140.797 124.386 141.009 124.178C141.221 123.971 141.464 123.806 141.741 123.689C142.018 123.572 142.308 123.516 142.611 123.529C142.905 123.538 143.156 123.581 143.364 123.655C143.572 123.728 143.745 123.815 143.879 123.901C144.013 123.988 144.108 124.07 144.173 124.144C144.238 124.217 144.268 124.252 144.268 124.252L143.433 125.027L143.437 125.022Z" fill="#D3D3D3"/>
<path d="M149.618 127.373C149.618 127.373 149.6 127.386 149.562 127.421C149.523 127.455 149.471 127.499 149.401 127.546C149.332 127.594 149.246 127.65 149.146 127.711C149.046 127.771 148.934 127.828 148.808 127.875C148.683 127.923 148.553 127.966 148.406 128.001C148.259 128.035 148.112 128.053 147.956 128.048C147.649 128.048 147.359 127.983 147.09 127.867C146.822 127.75 146.584 127.585 146.38 127.382C146.177 127.178 146.017 126.94 145.9 126.668C145.783 126.395 145.727 126.096 145.727 125.78C145.727 125.46 145.783 125.162 145.909 124.876C146.034 124.59 146.199 124.348 146.415 124.136C146.631 123.924 146.874 123.759 147.159 123.642C147.445 123.526 147.744 123.469 148.064 123.482C148.419 123.495 148.735 123.578 149.021 123.72C149.306 123.863 149.544 124.058 149.739 124.3C149.934 124.543 150.081 124.824 150.176 125.14C150.271 125.456 150.31 125.798 150.284 126.161H146.956C147.038 126.386 147.164 126.559 147.337 126.689C147.51 126.819 147.718 126.884 147.96 126.888C148.138 126.893 148.298 126.862 148.441 126.798C148.583 126.733 148.7 126.642 148.787 126.538L149.618 127.373ZM148.93 125.231C148.93 125.231 148.908 125.201 148.878 125.144C148.847 125.088 148.791 125.023 148.718 124.954C148.644 124.885 148.544 124.82 148.423 124.763C148.302 124.707 148.155 124.677 147.977 124.677C147.822 124.677 147.688 124.707 147.571 124.763C147.454 124.82 147.359 124.885 147.281 124.954C147.19 125.036 147.112 125.127 147.047 125.231H148.93Z" fill="#D3D3D3"/>
<path d="M151.829 125.173C151.829 124.953 151.868 124.741 151.942 124.537C152.015 124.334 152.124 124.156 152.258 124.001C152.392 123.845 152.556 123.724 152.747 123.633C152.937 123.542 153.149 123.494 153.379 123.494C153.491 123.494 153.599 123.511 153.712 123.546C153.825 123.581 153.924 123.624 154.015 123.676C154.106 123.728 154.188 123.78 154.257 123.836C154.327 123.892 154.374 123.936 154.404 123.97C154.565 123.797 154.733 123.676 154.907 123.602C155.08 123.529 155.287 123.494 155.525 123.494C155.768 123.494 155.98 123.546 156.17 123.641C156.361 123.737 156.517 123.866 156.646 124.026C156.776 124.187 156.876 124.368 156.941 124.576C157.006 124.784 157.04 124.996 157.04 125.221V127.887H155.85V125.165C155.85 125.1 155.841 125.035 155.824 124.97C155.807 124.905 155.781 124.849 155.746 124.797C155.712 124.745 155.668 124.702 155.616 124.671C155.564 124.641 155.504 124.624 155.439 124.624C155.378 124.624 155.322 124.637 155.27 124.663C155.218 124.689 155.175 124.728 155.14 124.771C155.106 124.814 155.075 124.87 155.058 124.927C155.041 124.983 155.028 125.044 155.028 125.104V127.887H153.82V125.165C153.82 125.1 153.812 125.039 153.794 124.974C153.777 124.909 153.751 124.853 153.716 124.801C153.682 124.749 153.638 124.71 153.591 124.68C153.543 124.65 153.483 124.632 153.422 124.637C153.366 124.637 153.314 124.65 153.266 124.676C153.219 124.702 153.18 124.741 153.149 124.784C153.119 124.827 153.089 124.879 153.071 124.935C153.054 124.992 153.046 125.048 153.046 125.108V127.883H151.829V125.169V125.173Z" fill="#D3D3D3"/>
<path d="M162.455 127.373C162.455 127.373 162.437 127.386 162.398 127.421C162.359 127.455 162.307 127.499 162.238 127.546C162.169 127.594 162.082 127.65 161.983 127.711C161.883 127.771 161.771 127.828 161.645 127.875C161.52 127.923 161.39 127.966 161.243 128.001C161.096 128.035 160.948 128.053 160.793 128.048C160.485 128.048 160.195 127.983 159.927 127.867C159.659 127.75 159.421 127.585 159.217 127.382C159.014 127.178 158.854 126.94 158.737 126.668C158.62 126.395 158.564 126.096 158.564 125.78C158.564 125.46 158.62 125.162 158.746 124.876C158.871 124.59 159.035 124.348 159.252 124.136C159.468 123.924 159.711 123.759 159.996 123.642C160.282 123.526 160.581 123.469 160.901 123.482C161.256 123.495 161.572 123.578 161.857 123.72C162.143 123.863 162.381 124.058 162.576 124.3C162.771 124.543 162.918 124.824 163.013 125.14C163.108 125.456 163.147 125.798 163.121 126.161H159.793C159.875 126.386 160.001 126.559 160.174 126.689C160.347 126.819 160.555 126.884 160.797 126.888C160.974 126.893 161.135 126.862 161.277 126.798C161.42 126.733 161.537 126.642 161.624 126.538L162.455 127.373ZM161.766 125.231C161.766 125.231 161.745 125.201 161.714 125.144C161.684 125.088 161.628 125.023 161.554 124.954C161.481 124.885 161.381 124.82 161.26 124.763C161.139 124.707 160.992 124.677 160.814 124.677C160.658 124.677 160.524 124.707 160.407 124.763C160.291 124.82 160.195 124.885 160.117 124.954C160.027 125.036 159.949 125.127 159.884 125.231H161.766Z" fill="#D3D3D3"/>
<path d="M164.636 127.883L164.623 125.347C164.623 125.092 164.67 124.849 164.77 124.628C164.869 124.408 165.004 124.209 165.177 124.04C165.35 123.871 165.549 123.741 165.783 123.642C166.016 123.542 166.263 123.495 166.527 123.49C166.769 123.49 166.999 123.534 167.215 123.633C167.432 123.733 167.622 123.862 167.787 124.027C167.951 124.191 168.077 124.386 168.172 124.607C168.267 124.828 168.315 125.061 168.315 125.308V127.879H167.137V125.572C167.137 125.312 167.081 125.1 166.973 124.936C166.865 124.771 166.709 124.689 166.514 124.685C166.315 124.685 166.159 124.75 166.047 124.884C165.934 125.018 165.878 125.208 165.878 125.442V127.879H164.644L164.636 127.883Z" fill="#D3D3D3"/>
<path d="M171.595 122.551V123.611H172.4V124.767H171.604V127.887H170.44V124.767H169.829V123.611H170.44V122.551H171.595Z" fill="#D3D3D3"/>
<path d="M2.12075 111.057L2.31551 110.339C2.3761 110.07 2.4237 109.811 2.46266 109.555C2.50161 109.3 2.51892 109.045 2.51892 108.793C2.54056 108.538 2.54489 108.291 2.52758 108.049C2.51026 107.807 2.49295 107.564 2.47131 107.318L2.14671 105.863C2.09478 105.63 2.01688 105.396 1.91733 105.162C1.81779 104.929 1.70093 104.699 1.57975 104.479H3.85626C4.04669 104.907 4.19384 105.335 4.30204 105.768C4.41024 106.201 4.49247 106.651 4.55306 107.11C4.61365 107.56 4.63962 108.014 4.62664 108.482C4.61365 108.949 4.5747 109.412 4.50545 109.88H5.73027C5.58745 109.88 5.48357 109.91 5.41433 109.971C5.34508 110.031 5.31478 110.109 5.31478 110.209V111.546C5.31478 111.65 5.34941 111.728 5.41433 111.78C5.47925 111.832 5.58745 111.866 5.73027 111.888H4.05967L3.65285 112.827L3.14647 113.74L2.49295 114.68L1.67064 115.632L-0.0129395 114.307L0.640583 113.533L1.13397 112.879L1.55378 112.303L1.87838 111.719L2.11642 111.066H2.11209L2.12075 111.057Z" fill="#3B5A92"/>
<path d="M13.3259 109.878C13.222 109.878 13.1398 109.909 13.0748 109.965C13.0099 110.021 12.9796 110.112 12.9796 110.233V111.553C12.9796 111.666 13.0013 111.744 13.0489 111.791C13.0965 111.839 13.1744 111.869 13.2869 111.891H5.28019C5.16766 111.869 5.08976 111.835 5.04215 111.791C4.99454 111.748 4.9729 111.666 4.9729 111.553V110.233C4.9729 110.112 5.0032 110.021 5.06812 109.965C5.13304 109.909 5.21527 109.878 5.31914 109.878H6.21935L5.88177 108.935C5.85148 108.783 5.82551 108.632 5.8082 108.476C5.79089 108.32 5.7779 108.16 5.7779 107.996C5.7779 107.74 5.80387 107.489 5.8558 107.247C5.90774 107.005 5.98132 106.749 6.08086 106.49C6.18473 106.264 6.30591 106.057 6.44441 105.858C6.5829 105.659 6.74304 105.472 6.91183 105.286C7.09793 105.122 7.29269 104.97 7.50043 104.832C7.70817 104.693 7.94188 104.568 8.19723 104.455C8.44393 104.373 8.69062 104.308 8.94164 104.261C9.19267 104.213 9.43936 104.191 9.68605 104.191C9.96304 104.191 10.2314 104.213 10.4997 104.261C10.768 104.308 11.0147 104.373 11.2528 104.455C11.5168 104.568 11.7505 104.693 11.9626 104.832C12.1746 104.97 12.3694 105.135 12.5555 105.321L12.7243 105.546L11.4519 107.234L11.2008 106.896C11.1316 106.784 11.045 106.68 10.9368 106.589C10.8286 106.498 10.7031 106.42 10.5603 106.36C10.4175 106.308 10.266 106.269 10.1102 106.239C9.95439 106.208 9.79858 106.195 9.6471 106.195L9.00656 106.355L8.45691 106.719L8.115 107.321L7.99382 107.987V108.273L8.06307 108.584L8.20589 108.883L8.41363 109.233L9.12342 109.679L10.0929 109.874H13.3345L13.3259 109.878Z" fill="#3B5A92"/>
<path d="M26.8377 111.892C26.6516 111.892 26.4655 111.874 26.2794 111.835C26.0933 111.796 25.9072 111.749 25.7211 111.688C25.5306 111.628 25.3619 111.554 25.2147 111.468C25.0675 111.381 24.9334 111.277 24.8079 111.152C24.6694 111.303 24.5092 111.437 24.3318 111.554C24.1544 111.671 23.9726 111.77 23.7865 111.853C23.596 111.957 23.3926 112.03 23.1762 112.073C22.9598 112.117 22.7348 112.138 22.5054 112.138C22.3236 112.138 22.1332 112.121 21.9341 112.082C21.735 112.043 21.5446 111.983 21.3585 111.9C21.1681 111.818 20.9993 111.727 20.8521 111.623C20.705 111.519 20.5578 111.411 20.4063 111.294C20.2635 111.411 20.112 111.519 19.9476 111.623C19.7831 111.727 19.61 111.818 19.4239 111.9C19.0517 112.06 18.6708 112.138 18.277 112.138C18.0865 112.138 17.9004 112.121 17.7187 112.086C17.5369 112.052 17.3638 112.004 17.1993 111.944C17.0349 111.874 16.8834 111.801 16.7362 111.723C16.5891 111.645 16.4419 111.554 16.2948 111.45C16.2342 111.511 16.1649 111.567 16.0827 111.623C16.0005 111.68 15.9096 111.727 15.8057 111.77L15.1522 111.892H12.9666C12.8454 111.892 12.7545 111.861 12.6896 111.805C12.6247 111.749 12.5944 111.667 12.5944 111.563V110.256C12.5944 110.005 12.7199 109.879 12.9709 109.879H13.8754C13.9793 109.879 14.0789 109.871 14.1784 109.849C14.2779 109.827 14.3558 109.797 14.4164 109.754L14.7843 109.425L15.0353 108.931L15.1132 108.347V104.452H17.1171V108.927C17.1171 108.988 17.1257 109.048 17.1474 109.113C17.169 109.178 17.1863 109.239 17.208 109.299L17.459 109.667C17.6451 109.84 17.8442 109.944 18.0606 109.979C18.277 110.013 18.4804 109.992 18.6708 109.914C18.8613 109.836 19.0257 109.71 19.1642 109.533C19.3027 109.355 19.3936 109.139 19.4282 108.879V104.448H21.4537V108.879C21.4624 109.139 21.5229 109.351 21.6311 109.516C21.7393 109.68 21.8778 109.806 22.038 109.879C22.1981 109.953 22.3712 109.992 22.5573 109.987C22.7434 109.983 22.9166 109.935 23.0767 109.853C23.2368 109.771 23.3753 109.645 23.4835 109.481C23.5917 109.317 23.6523 109.117 23.661 108.879V104.448H25.6735V108.343L25.7903 108.927C25.8812 109.139 25.9937 109.304 26.1322 109.42L26.578 109.749L27.1623 109.879H27.4003C27.3138 109.896 27.2532 109.931 27.2142 109.979C27.1753 110.026 27.158 110.104 27.158 110.208V111.558C27.158 111.662 27.1883 111.736 27.2445 111.783C27.3008 111.831 27.3917 111.866 27.5129 111.887H26.829L26.8377 111.892ZM19.0993 101.254C19.2594 101.254 19.4066 101.284 19.5451 101.34C19.6836 101.396 19.8047 101.479 19.9086 101.582C20.0125 101.686 20.0947 101.808 20.1596 101.95C20.2246 102.093 20.2592 102.249 20.2678 102.418C20.2678 102.587 20.2462 102.742 20.1856 102.894C20.125 103.045 20.0385 103.171 19.9303 103.283C19.8221 103.396 19.6922 103.482 19.5451 103.547C19.3979 103.612 19.2421 103.643 19.0777 103.638C18.9132 103.638 18.7574 103.604 18.6102 103.539C18.4631 103.474 18.3376 103.379 18.2337 103.262C18.1298 103.145 18.0519 103.006 17.9957 102.851C17.9394 102.695 17.9221 102.526 17.9394 102.344C17.9567 102.193 17.9957 102.05 18.0606 101.916C18.1255 101.782 18.2077 101.665 18.3116 101.569C18.4155 101.474 18.5323 101.396 18.6665 101.34C18.8007 101.284 18.9435 101.258 19.0993 101.258V101.254ZM20.4842 98.9121C20.6444 98.9121 20.7915 98.9424 20.93 98.9987C21.0685 99.0549 21.1897 99.1372 21.2936 99.241C21.3974 99.3449 21.4797 99.4661 21.5446 99.6089C21.6095 99.7517 21.6441 99.9075 21.6528 100.076C21.6528 100.245 21.6311 100.401 21.5706 100.552C21.51 100.704 21.4234 100.829 21.3152 100.942C21.207 101.054 21.0772 101.141 20.93 101.206C20.7829 101.271 20.6271 101.301 20.4626 101.297C20.2981 101.297 20.1423 101.262 19.9952 101.197C19.848 101.132 19.7225 101.037 19.6186 100.92C19.5148 100.803 19.4369 100.665 19.3806 100.509C19.3243 100.353 19.307 100.185 19.3243 100.003C19.3417 99.8513 19.3806 99.7085 19.4455 99.5743C19.5104 99.4401 19.5927 99.3233 19.6965 99.2281C19.8004 99.1328 19.9173 99.0549 20.0514 98.9987C20.1856 98.9424 20.3284 98.9164 20.4842 98.9164V98.9121ZM21.8346 101.267C21.9947 101.267 22.1418 101.297 22.2803 101.353C22.4188 101.409 22.54 101.492 22.6439 101.595C22.7478 101.699 22.83 101.821 22.8949 101.963C22.9598 102.106 22.9945 102.262 23.0031 102.431C23.0031 102.6 22.9815 102.755 22.9209 102.907C22.8603 103.058 22.7737 103.184 22.6655 103.296C22.5573 103.409 22.4275 103.495 22.2803 103.56C22.1332 103.625 21.9774 103.656 21.8129 103.651C21.6485 103.651 21.4927 103.617 21.3455 103.552C21.1984 103.487 21.0728 103.392 20.969 103.275C20.8651 103.158 20.7872 103.019 20.7309 102.864C20.6747 102.708 20.6574 102.539 20.6747 102.357C20.692 102.206 20.7309 102.063 20.7959 101.929C20.8608 101.795 20.943 101.678 21.0469 101.582C21.1507 101.487 21.2676 101.409 21.4018 101.353C21.5359 101.297 21.6788 101.271 21.8346 101.271V101.267Z" fill="#3B5A92"/>
<path d="M27.1667 111.893C27.0152 111.893 26.907 111.862 26.8464 111.802C26.7858 111.741 26.7512 111.663 26.7512 111.568V110.209C26.7512 110.109 26.7815 110.032 26.8464 109.971C26.9114 109.91 27.0152 109.884 27.1667 109.884H28.2227V101.609H30.2612V111.888H27.1667V111.893Z" fill="#3B5A92"/>
<path d="M34.918 101.449V111.884H32.9055V101.449H34.918Z" fill="#3B5A92"/>
<path d="M50.1092 109.88C49.9664 109.88 49.8625 109.906 49.8019 109.962C49.7413 110.018 49.7067 110.1 49.7067 110.209V111.559C49.7067 111.663 49.737 111.741 49.8019 111.788C49.8668 111.836 49.9664 111.871 50.1092 111.884H42.1847V109.867C42.228 109.451 42.3189 109.036 42.4574 108.612C42.5958 108.188 42.7733 107.781 42.994 107.387C43.2147 106.993 43.4701 106.621 43.7557 106.266C44.0414 105.911 44.3617 105.599 44.7036 105.322C45.0455 105.045 45.4134 104.816 45.8072 104.63C46.201 104.444 46.6079 104.323 47.032 104.262C47.4562 104.201 47.8889 104.214 48.3391 104.292C48.7892 104.37 49.2393 104.543 49.6894 104.799V109.875H50.1092V109.88ZM47.7028 106.439C47.3782 106.396 47.0796 106.413 46.807 106.495C46.5343 106.578 46.2789 106.699 46.0496 106.867C45.8202 107.036 45.6124 107.24 45.4307 107.478C45.2489 107.716 45.0931 107.967 44.9546 108.239C44.8161 108.512 44.7036 108.785 44.617 109.07C44.5304 109.356 44.4612 109.629 44.4179 109.884H47.7028V106.443V106.439ZM45.7163 101.172C45.8764 101.172 46.0236 101.202 46.1621 101.258C46.3006 101.315 46.4218 101.397 46.5256 101.501C46.6295 101.605 46.7117 101.726 46.7767 101.869C46.8416 102.012 46.8762 102.167 46.8849 102.336C46.8849 102.505 46.8632 102.661 46.8026 102.812C46.742 102.964 46.6555 103.089 46.5473 103.202C46.4391 103.314 46.3092 103.401 46.1621 103.466C46.0149 103.531 45.8591 103.561 45.6947 103.557C45.5302 103.557 45.3744 103.522 45.2273 103.457C45.0801 103.392 44.9546 103.297 44.8507 103.18C44.7468 103.063 44.6689 102.925 44.6127 102.769C44.5564 102.613 44.5391 102.444 44.5564 102.263C44.5737 102.111 44.6127 101.968 44.6776 101.834C44.7425 101.7 44.8247 101.583 44.9286 101.488C45.0325 101.393 45.1493 101.315 45.2835 101.258C45.4177 101.202 45.5605 101.176 45.7163 101.176V101.172ZM48.4516 101.185C48.6117 101.185 48.7589 101.215 48.8974 101.271C49.0359 101.328 49.157 101.41 49.2609 101.514C49.3648 101.618 49.447 101.739 49.5119 101.882C49.5769 102.024 49.6115 102.18 49.6201 102.349C49.6201 102.518 49.5985 102.674 49.5379 102.825C49.4773 102.977 49.3908 103.102 49.2826 103.215C49.1744 103.327 49.0445 103.414 48.8974 103.479C48.7502 103.544 48.5944 103.574 48.4299 103.57C48.2655 103.57 48.1097 103.535 47.9625 103.47C47.8154 103.405 47.6899 103.31 47.586 103.193C47.4821 103.076 47.4042 102.938 47.348 102.782C47.2917 102.626 47.2744 102.457 47.2917 102.276C47.309 102.124 47.348 101.981 47.4129 101.847C47.4778 101.713 47.56 101.596 47.6639 101.501C47.7678 101.406 47.8846 101.328 48.0188 101.271C48.153 101.215 48.2958 101.189 48.4516 101.189V101.185Z" fill="#3B5A92"/>
<path d="M57.3802 111.891H49.6504C49.5379 111.87 49.46 111.835 49.4124 111.792C49.3648 111.749 49.3431 111.666 49.3431 111.554V110.234C49.3431 110.113 49.3734 110.022 49.4384 109.965C49.5033 109.909 49.5855 109.879 49.6894 109.879H50.5896L50.2607 108.922C50.2304 108.771 50.2044 108.619 50.1871 108.464C50.1698 108.308 50.1568 108.148 50.1568 107.983C50.1568 107.728 50.1828 107.477 50.2304 107.235C50.278 106.992 50.3559 106.737 50.4554 106.477C50.5593 106.243 50.6805 106.031 50.819 105.832C50.9575 105.633 51.1176 105.447 51.2864 105.261C51.4725 105.097 51.6716 104.945 51.8837 104.807C52.0957 104.668 52.3294 104.543 52.5891 104.43C52.8358 104.348 53.0825 104.283 53.3335 104.235C53.5845 104.188 53.8312 104.166 54.0779 104.166C54.3592 104.166 54.6319 104.188 54.9002 104.235C55.1686 104.283 55.4196 104.348 55.6576 104.43C55.9216 104.543 56.1597 104.668 56.3674 104.807C56.5752 104.945 56.7743 105.11 56.956 105.296L57.1248 105.521L55.8524 107.222L55.6014 106.884C55.5321 106.771 55.4456 106.668 55.3374 106.577C55.2292 106.486 55.0993 106.404 54.9479 106.334C54.805 106.282 54.6535 106.243 54.4977 106.213C54.3419 106.183 54.1861 106.17 54.0347 106.17L53.3941 106.33L52.8445 106.707L52.5026 107.308L52.3857 107.975V108.26L52.4549 108.572L52.5891 108.871L52.7969 109.221L53.5066 109.68L54.4848 109.875H57.3888V111.887L57.3802 111.891Z" fill="#3B5A92"/>
<path d="M61.7298 101.449V111.884H59.7173V101.449H61.7298Z" fill="#3B5A92"/>
<path d="M66.313 112.008L65.8196 113.185L65.0622 114.358L64.0322 115.535L62.3702 114.267L63.0108 113.509L63.5474 112.856L63.9153 112.272L64.2269 111.709L64.478 111.055L64.6467 110.337C64.7723 109.813 64.8458 109.303 64.8675 108.792C64.8891 108.281 64.8675 107.779 64.8112 107.269C64.7506 106.784 64.6424 106.312 64.4866 105.84C64.3308 105.369 64.1404 104.914 63.9153 104.473H66.1918C66.3996 104.962 66.564 105.455 66.6852 105.966C66.8064 106.477 66.8843 107.005 66.9233 107.567C66.9839 108.091 66.9925 108.623 66.9492 109.168C66.9059 109.714 66.8194 110.263 66.6852 110.813L66.3087 112.003L66.313 112.008Z" fill="#3B5A92"/>
<path d="M71.472 112L70.9786 113.19L70.2039 114.38L69.1739 115.57L67.4773 114.289L68.1308 113.519L68.6675 112.861L69.044 112.286L69.3686 111.701L69.6196 111.048L69.7884 110.316C69.9139 109.793 69.9875 109.278 70.0091 108.763C70.0308 108.248 70.0092 107.737 69.9529 107.222C69.8923 106.724 69.7841 106.244 69.6283 105.772C69.4725 105.3 69.2777 104.841 69.044 104.396H71.3465C71.5586 104.889 71.723 105.391 71.8442 105.902C71.9654 106.412 72.0476 106.953 72.0909 107.52C72.1515 108.053 72.1602 108.589 72.1169 109.139C72.0736 109.689 71.9827 110.243 71.8399 110.81L71.472 112ZM69.6846 100.596C69.8447 100.596 69.9918 100.626 70.1303 100.682C70.2688 100.739 70.39 100.821 70.4939 100.925C70.5978 101.029 70.68 101.15 70.7449 101.293C70.8098 101.435 70.8445 101.591 70.8531 101.76C70.8531 101.929 70.8315 102.085 70.7709 102.236C70.7103 102.387 70.6237 102.513 70.5155 102.626C70.4073 102.738 70.2775 102.825 70.1303 102.89C69.9832 102.954 69.8274 102.985 69.6629 102.98C69.4985 102.98 69.3426 102.946 69.1955 102.881C69.0483 102.816 68.9228 102.721 68.819 102.604C68.7151 102.487 68.6372 102.349 68.5809 102.193C68.5247 102.037 68.5073 101.868 68.5247 101.686C68.542 101.535 68.5809 101.392 68.6458 101.258C68.7108 101.124 68.793 101.007 68.8969 100.912C69.0007 100.816 69.1176 100.739 69.2518 100.682C69.3859 100.626 69.5287 100.6 69.6846 100.6V100.596Z" fill="#3B5A92"/>
<path d="M81.9284 114.299L83.0883 113.005C83.2441 112.801 83.3956 112.593 83.5427 112.381C83.6899 112.169 83.8197 111.953 83.9193 111.736L82.9238 111.884H82.7161C82.4737 111.862 82.2314 111.827 81.989 111.775C81.7466 111.724 81.5129 111.667 81.2879 111.602C81.0628 111.516 80.8507 111.416 80.6473 111.304C80.4439 111.191 80.2751 111.057 80.141 110.901C79.9289 110.728 79.7558 110.538 79.6173 110.33C79.4788 110.122 79.3662 109.901 79.2754 109.663C79.1585 109.421 79.0763 109.174 79.033 108.923C78.9897 108.672 78.9637 108.404 78.9637 108.118L79.1109 107.075C79.1585 106.915 79.2104 106.764 79.271 106.621C79.3316 106.478 79.4095 106.335 79.5091 106.197L80.0933 105.452L80.8378 104.855L81.7553 104.466L82.7983 104.318H82.9195L84.2266 104.513C84.4603 104.574 84.6723 104.66 84.8714 104.768C85.0705 104.877 85.2566 105.011 85.4384 105.167C85.5855 105.309 85.724 105.457 85.8495 105.604C85.975 105.751 86.0919 105.933 86.1958 106.149C86.4381 106.556 86.5939 107.019 86.6675 107.547L86.7454 108.529L86.6675 109.867C86.6026 110.144 86.5463 110.365 86.5031 110.533C86.4598 110.702 86.4165 110.849 86.3775 110.983C86.3386 111.118 86.2953 111.247 86.2477 111.377C86.2001 111.507 86.1438 111.676 86.0746 111.871L85.1571 113.658C84.9536 113.974 84.7329 114.29 84.4862 114.61C84.2395 114.931 83.9582 115.268 83.6336 115.627L81.9241 114.29L81.9284 114.299ZM83.7158 109.849L84.5641 109.72L84.668 108.806L84.5641 108.127C84.5425 107.975 84.5208 107.841 84.4949 107.72C84.4689 107.599 84.4256 107.473 84.3607 107.339L83.9842 106.816C83.9323 106.746 83.863 106.686 83.7808 106.629C83.6985 106.573 83.586 106.526 83.4475 106.487L82.807 106.314L82.0842 106.487C81.9717 106.526 81.8765 106.573 81.7942 106.629C81.712 106.686 81.6298 106.746 81.5475 106.816L81.2489 107.387L81.1147 108.131C81.1147 108.248 81.1234 108.365 81.145 108.482C81.1667 108.599 81.2013 108.707 81.2489 108.811C81.2835 108.936 81.3355 109.049 81.409 109.148C81.4826 109.248 81.5822 109.33 81.7077 109.391C81.7596 109.46 81.8202 109.521 81.8938 109.573C81.9674 109.624 82.0669 109.659 82.2011 109.676L82.8416 109.806L83.3653 109.849H83.7202H83.7158Z" fill="#3B5A92"/>
<path d="M102.845 111.9C102.828 112.004 102.811 112.103 102.789 112.199C102.768 112.294 102.737 112.393 102.698 112.497C102.664 112.722 102.612 112.926 102.538 113.107C102.465 113.289 102.374 113.471 102.261 113.653C102.149 113.804 102.027 113.964 101.898 114.129C101.768 114.293 101.642 114.458 101.517 114.622C101.361 114.748 101.209 114.869 101.058 114.981C100.907 115.094 100.755 115.211 100.599 115.319C100.396 115.44 100.205 115.54 100.019 115.618C99.8332 115.696 99.6471 115.76 99.4523 115.812L98.1713 115.985C97.9678 115.985 97.7601 115.973 97.548 115.942C97.336 115.912 97.1369 115.869 96.9464 115.808C96.743 115.756 96.5526 115.691 96.3665 115.613C96.1804 115.535 95.99 115.436 95.7865 115.315C95.6048 115.202 95.4403 115.09 95.2932 114.977C95.146 114.865 94.9989 114.743 94.8647 114.618C94.7089 114.453 94.5661 114.289 94.4406 114.124C94.315 113.96 94.1982 113.8 94.0943 113.648C93.9948 113.467 93.9125 113.285 93.8433 113.103C93.774 112.921 93.7091 112.718 93.6485 112.493C93.575 112.298 93.5273 112.103 93.5057 111.904C93.4841 111.705 93.4841 111.51 93.5014 111.316C93.4841 111.069 93.4927 110.84 93.5274 110.619C93.562 110.398 93.6139 110.19 93.6875 109.987C93.7264 109.784 93.787 109.584 93.8736 109.381C93.9601 109.178 94.0554 109 94.1679 108.84C94.3021 108.645 94.4362 108.468 94.5704 108.308C94.7046 108.148 94.8474 107.987 95.0032 107.832C95.159 107.68 95.3191 107.546 95.4793 107.429C95.6394 107.312 95.8342 107.2 96.0592 107.087L96.3319 106.953L97.297 108.797L97.033 108.931L96.4617 109.32L96.0159 109.944C95.9294 110.035 95.8644 110.134 95.8168 110.242C95.7692 110.35 95.7389 110.459 95.7173 110.571C95.687 110.684 95.661 110.796 95.6437 110.909C95.6264 111.021 95.6134 111.16 95.6134 111.311C95.6134 111.484 95.6264 111.649 95.6524 111.805C95.6783 111.96 95.726 112.121 95.7952 112.281C95.8947 112.445 95.9856 112.597 96.0722 112.74C96.1587 112.882 96.2583 113.004 96.3708 113.107C96.4833 113.216 96.6132 113.315 96.7603 113.402C96.9075 113.488 97.0546 113.57 97.2061 113.644C97.3792 113.705 97.548 113.752 97.7125 113.791C97.877 113.83 98.0457 113.847 98.2189 113.847C98.4006 113.847 98.5781 113.83 98.7512 113.791C98.9243 113.752 99.1018 113.705 99.2879 113.644C99.5822 113.497 99.8418 113.319 100.063 113.107C100.175 113.004 100.283 112.882 100.383 112.74C100.482 112.597 100.565 112.445 100.625 112.281C100.699 112.121 100.751 111.965 100.777 111.805C100.803 111.645 100.829 111.484 100.85 111.311V101.582H102.889V109.883H103.884C103.728 109.883 103.62 109.913 103.56 109.978C103.499 110.043 103.477 110.125 103.499 110.229V111.541C103.477 111.645 103.499 111.731 103.56 111.796C103.62 111.861 103.733 111.896 103.884 111.896H102.841L102.845 111.9Z" fill="#3B5A92"/>
<path d="M103.486 111.892C103.343 111.892 103.239 111.862 103.179 111.806C103.118 111.75 103.083 111.667 103.083 111.564V110.213C103.083 110.105 103.101 110.027 103.14 109.984C103.179 109.941 103.239 109.906 103.326 109.884H105.304V104.457H107.308V109.884H109.034C108.892 109.884 108.788 109.91 108.727 109.967C108.667 110.023 108.632 110.105 108.632 110.213V111.564C108.632 111.667 108.662 111.745 108.727 111.793C108.792 111.841 108.892 111.875 109.034 111.892H103.482H103.486ZM104.849 112.966C105.009 112.966 105.157 112.996 105.295 113.052C105.434 113.109 105.555 113.191 105.659 113.295C105.763 113.399 105.845 113.52 105.91 113.663C105.975 113.805 106.009 113.961 106.018 114.13C106.018 114.299 105.996 114.455 105.936 114.606C105.875 114.758 105.788 114.883 105.68 114.996C105.572 115.108 105.442 115.195 105.295 115.26C105.148 115.325 104.992 115.355 104.828 115.351C104.663 115.351 104.507 115.316 104.36 115.251C104.213 115.186 104.088 115.091 103.984 114.974C103.88 114.857 103.802 114.719 103.746 114.563C103.689 114.407 103.672 114.238 103.689 114.056C103.707 113.905 103.746 113.762 103.811 113.628C103.876 113.494 103.958 113.377 104.062 113.282C104.165 113.187 104.282 113.109 104.417 113.052C104.551 112.996 104.693 112.97 104.849 112.97V112.966ZM107.585 112.979C107.745 112.979 107.892 113.009 108.03 113.065C108.169 113.122 108.29 113.204 108.394 113.308C108.498 113.412 108.58 113.533 108.645 113.676C108.71 113.818 108.744 113.974 108.753 114.143C108.753 114.312 108.731 114.468 108.671 114.619C108.61 114.771 108.524 114.896 108.416 115.009C108.307 115.121 108.178 115.208 108.03 115.273C107.883 115.338 107.727 115.368 107.563 115.363C107.398 115.363 107.243 115.329 107.096 115.264C106.948 115.199 106.823 115.104 106.719 114.987C106.615 114.87 106.537 114.732 106.481 114.576C106.425 114.42 106.407 114.251 106.425 114.069C106.442 113.918 106.481 113.775 106.546 113.641C106.611 113.507 106.693 113.39 106.797 113.295C106.901 113.2 107.018 113.122 107.152 113.065C107.286 113.009 107.429 112.983 107.585 112.983V112.979Z" fill="#3B5A92"/>
<path d="M111.627 112.856C111.402 112.743 111.185 112.605 110.982 112.444C110.779 112.284 110.588 112.098 110.424 111.89H108.606C108.502 111.89 108.429 111.86 108.39 111.8C108.351 111.739 108.329 111.661 108.329 111.562V110.211C108.329 109.991 108.437 109.882 108.654 109.882H109.415L109.372 109.54V109.289C109.372 109.095 109.381 108.917 109.402 108.753C109.424 108.588 109.45 108.437 109.485 108.294C109.554 108.121 109.623 107.961 109.692 107.814C109.762 107.666 109.835 107.511 109.917 107.359L110.515 106.571L111.302 105.987L112.22 105.606L113.215 105.438C113.497 105.438 113.761 105.459 114.012 105.507C114.263 105.554 114.501 105.624 114.721 105.723C114.959 105.836 115.176 105.966 115.371 106.108C115.565 106.251 115.76 106.407 115.955 106.571C116.119 106.766 116.271 106.965 116.414 107.169C116.556 107.372 116.682 107.597 116.79 107.84C116.894 108.073 116.968 108.303 117.007 108.536C117.045 108.77 117.067 109.021 117.067 109.298V109.549L117.024 109.891H117.664C117.418 109.891 117.297 109.999 117.297 110.22V111.57C117.297 111.67 117.327 111.748 117.387 111.808C117.448 111.869 117.539 111.899 117.664 111.899H116.072C115.886 112.085 115.687 112.258 115.474 112.427C115.262 112.596 115.024 112.739 114.765 112.864C114.54 112.968 114.297 113.05 114.029 113.107C113.761 113.163 113.492 113.193 113.211 113.193C112.93 113.193 112.644 113.163 112.371 113.107C112.099 113.05 111.852 112.968 111.618 112.864L111.627 112.856ZM113.276 107.614C113.046 107.614 112.83 107.649 112.631 107.736C112.432 107.822 112.25 107.943 112.099 108.095C111.947 108.246 111.822 108.428 111.731 108.632C111.64 108.835 111.588 109.051 111.584 109.281C111.575 109.519 111.614 109.739 111.696 109.947C111.778 110.155 111.895 110.337 112.047 110.493C112.198 110.648 112.371 110.774 112.57 110.865C112.769 110.956 112.986 111.003 113.215 111.008C113.458 111.016 113.683 110.973 113.89 110.878C114.098 110.783 114.28 110.653 114.436 110.488C114.592 110.324 114.713 110.133 114.795 109.917C114.877 109.701 114.916 109.475 114.907 109.237C114.899 109.012 114.851 108.805 114.765 108.606C114.678 108.406 114.561 108.238 114.414 108.091C114.267 107.943 114.098 107.827 113.903 107.74C113.709 107.653 113.501 107.61 113.276 107.606V107.614Z" fill="#3B5A92"/>
<path d="M117.301 111.887C117.149 111.887 117.041 111.861 116.976 111.805C116.911 111.749 116.881 111.671 116.881 111.567V110.217C116.881 110.108 116.911 110.026 116.976 109.97C117.041 109.914 117.149 109.888 117.301 109.888H124.697C124.676 109.593 124.637 109.312 124.576 109.044C124.516 108.775 124.433 108.507 124.325 108.239C124.221 107.992 124.091 107.758 123.936 107.533C123.78 107.308 123.598 107.092 123.395 106.88C123.23 106.715 123.057 106.573 122.875 106.451C122.694 106.33 122.507 106.239 122.321 106.179C122.131 106.075 121.936 106.001 121.728 105.962C121.521 105.923 121.309 105.902 121.084 105.902L120.01 106.109C119.846 106.17 119.694 106.235 119.547 106.3C119.4 106.365 119.253 106.451 119.106 106.555L118.868 106.763L117.677 105.114L117.915 104.945C118.149 104.759 118.387 104.608 118.63 104.482C118.872 104.357 119.132 104.257 119.404 104.175C119.677 104.088 119.95 104.023 120.218 103.984C120.486 103.945 120.781 103.924 121.084 103.924C121.434 103.924 121.772 103.958 122.101 104.023C122.43 104.088 122.763 104.196 123.092 104.339C123.706 104.577 124.286 104.95 124.832 105.46C125.117 105.768 125.373 106.092 125.598 106.434C125.823 106.776 126.017 107.135 126.182 107.512C126.346 107.906 126.485 108.295 126.597 108.685C126.71 109.074 126.775 109.477 126.788 109.892H127.701C127.58 109.892 127.489 109.922 127.424 109.983C127.359 110.044 127.329 110.121 127.329 110.221V111.571C127.329 111.671 127.359 111.744 127.424 111.792C127.489 111.84 127.58 111.874 127.701 111.896H117.297L117.301 111.887ZM121.408 113.013C121.564 113.013 121.711 113.043 121.85 113.099C121.988 113.155 122.109 113.238 122.213 113.337C122.317 113.437 122.399 113.558 122.46 113.701C122.52 113.844 122.555 113.995 122.564 114.164C122.564 114.333 122.542 114.488 122.481 114.636C122.421 114.783 122.339 114.913 122.23 115.021C122.122 115.129 121.997 115.215 121.854 115.28C121.711 115.345 121.555 115.371 121.391 115.367C121.226 115.367 121.075 115.332 120.928 115.267C120.781 115.202 120.659 115.112 120.556 114.995C120.452 114.878 120.374 114.744 120.318 114.592C120.261 114.441 120.244 114.268 120.261 114.086C120.279 113.934 120.318 113.796 120.382 113.666C120.447 113.536 120.53 113.424 120.633 113.328C120.737 113.233 120.85 113.155 120.984 113.099C121.118 113.043 121.261 113.017 121.412 113.017L121.408 113.013Z" fill="#3B5A92"/>
<path d="M127.32 111.901C127.177 111.901 127.073 111.871 127.013 111.815C126.952 111.758 126.918 111.676 126.918 111.572V110.222C126.918 110.114 126.935 110.036 126.974 109.993C127.013 109.949 127.073 109.915 127.16 109.893H129.138V104.466H131.142V109.893H132.869C132.726 109.893 132.622 109.919 132.561 109.975C132.501 110.032 132.466 110.114 132.466 110.222V111.572C132.466 111.676 132.496 111.754 132.561 111.802C132.626 111.849 132.726 111.884 132.869 111.901H127.316H127.32ZM128.618 101.168C128.779 101.168 128.926 101.198 129.064 101.255C129.203 101.311 129.324 101.393 129.428 101.497C129.532 101.601 129.614 101.722 129.679 101.865C129.744 102.008 129.778 102.163 129.787 102.332C129.787 102.501 129.765 102.657 129.705 102.808C129.644 102.96 129.558 103.085 129.449 103.198C129.341 103.31 129.211 103.397 129.064 103.462C128.917 103.527 128.761 103.557 128.597 103.553C128.432 103.553 128.277 103.518 128.129 103.453C127.982 103.388 127.857 103.293 127.753 103.176C127.649 103.059 127.571 102.921 127.515 102.765C127.459 102.609 127.441 102.44 127.459 102.259C127.476 102.107 127.515 101.964 127.58 101.83C127.645 101.696 127.727 101.579 127.831 101.484C127.935 101.389 128.052 101.311 128.186 101.255C128.32 101.198 128.463 101.172 128.618 101.172V101.168ZM131.354 101.181C131.514 101.181 131.661 101.211 131.8 101.268C131.938 101.324 132.059 101.406 132.163 101.51C132.267 101.614 132.349 101.735 132.414 101.878C132.479 102.021 132.514 102.176 132.522 102.345C132.522 102.514 132.501 102.67 132.44 102.821C132.379 102.973 132.293 103.098 132.185 103.211C132.077 103.323 131.947 103.41 131.8 103.475C131.652 103.54 131.497 103.57 131.332 103.566C131.168 103.566 131.012 103.531 130.865 103.466C130.718 103.401 130.592 103.306 130.488 103.189C130.384 103.072 130.306 102.934 130.25 102.778C130.194 102.622 130.177 102.453 130.194 102.272C130.211 102.12 130.25 101.977 130.315 101.843C130.38 101.709 130.462 101.592 130.566 101.497C130.67 101.402 130.787 101.324 130.921 101.268C131.055 101.211 131.198 101.185 131.354 101.185V101.181Z" fill="#3B5A92"/>
<path d="M132.427 111.891C132.315 111.861 132.237 111.818 132.189 111.757C132.141 111.697 132.12 111.623 132.12 111.532V110.225C132.12 110.121 132.15 110.039 132.215 109.974C132.28 109.909 132.366 109.879 132.479 109.879H133.5V101.561H135.5V109.879H136.439C136.283 109.879 136.175 109.909 136.114 109.974C136.054 110.039 136.032 110.121 136.054 110.225V111.532C136.032 111.636 136.054 111.723 136.114 111.788C136.175 111.852 136.288 111.887 136.439 111.887H132.436L132.427 111.891Z" fill="#3B5A92"/>
<path d="M136.045 111.893C135.894 111.893 135.786 111.862 135.725 111.802C135.664 111.741 135.63 111.663 135.63 111.568V110.209C135.63 110.109 135.66 110.032 135.725 109.971C135.79 109.91 135.894 109.884 136.045 109.884H137.101V101.609H139.14V111.888H136.045V111.893Z" fill="#3B5A92"/>
<path d="M148.203 112.008L147.709 113.185L146.952 114.358L145.922 115.535L144.26 114.267L144.9 113.509L145.437 112.856L145.805 112.272L146.116 111.709L146.367 111.055L146.536 110.337C146.662 109.813 146.735 109.303 146.757 108.792C146.779 108.281 146.757 107.779 146.701 107.269C146.64 106.784 146.532 106.312 146.376 105.84C146.22 105.369 146.03 104.914 145.805 104.473H148.081C148.289 104.962 148.454 105.455 148.575 105.966C148.696 106.477 148.774 107.005 148.813 107.567C148.873 108.091 148.882 108.623 148.839 109.168C148.795 109.714 148.709 110.263 148.575 110.813L148.198 112.003L148.203 112.008Z" fill="#3B5A92"/>
<path d="M153.327 101.449V111.884H151.314V101.449H153.327Z" fill="#3B5A92"/>
<path d="M155.876 111.892V109.879H162.346C162.325 109.607 162.286 109.347 162.225 109.092C162.165 108.836 162.082 108.598 161.978 108.365C161.87 108.139 161.745 107.919 161.606 107.694C161.468 107.469 161.299 107.27 161.113 107.083C160.97 106.941 160.819 106.811 160.658 106.698C160.498 106.586 160.321 106.495 160.13 106.43L158.94 106.192L158.001 106.352C157.837 106.413 157.685 106.478 157.538 106.542C157.391 106.607 157.244 106.694 157.096 106.798L156.858 107.006V104.668L157.888 104.344L158.897 104.223L159.927 104.344L160.909 104.595C161.061 104.655 161.208 104.72 161.351 104.785C161.494 104.85 161.632 104.937 161.771 105.041L162.606 105.651C162.87 105.958 163.099 106.274 163.303 106.603C163.506 106.932 163.679 107.27 163.831 107.62C163.995 107.971 164.125 108.334 164.22 108.719C164.316 109.105 164.372 109.49 164.393 109.879H165.298C165.181 109.879 165.09 109.91 165.025 109.97C164.96 110.031 164.93 110.109 164.93 110.208V111.559C164.93 111.658 164.96 111.732 165.025 111.784C165.09 111.836 165.181 111.87 165.298 111.892H155.885H155.876Z" fill="#3B5A92"/>
<path d="M168.617 104.404H170.643V111.892H164.926C164.774 111.892 164.666 111.866 164.605 111.809C164.545 111.753 164.51 111.675 164.51 111.571V110.212C164.51 110.109 164.541 110.031 164.605 109.974C164.67 109.918 164.774 109.892 164.926 109.892H168.622V104.413L168.617 104.404ZM166.497 112.943C166.657 112.943 166.804 112.974 166.943 113.03C167.081 113.086 167.202 113.168 167.306 113.272C167.41 113.376 167.492 113.497 167.557 113.64C167.622 113.783 167.657 113.939 167.665 114.108C167.665 114.276 167.644 114.432 167.583 114.584C167.523 114.735 167.436 114.861 167.328 114.973C167.22 115.086 167.09 115.172 166.943 115.237C166.795 115.302 166.64 115.332 166.475 115.328C166.311 115.328 166.155 115.293 166.008 115.229C165.861 115.164 165.735 115.068 165.631 114.952C165.527 114.835 165.449 114.696 165.393 114.54C165.337 114.385 165.32 114.216 165.337 114.034C165.354 113.883 165.393 113.74 165.458 113.606C165.523 113.471 165.605 113.355 165.709 113.259C165.813 113.164 165.93 113.086 166.064 113.03C166.198 112.974 166.341 112.948 166.497 112.948V112.943ZM169.232 112.956C169.392 112.956 169.539 112.987 169.678 113.043C169.816 113.099 169.938 113.181 170.041 113.285C170.145 113.389 170.228 113.51 170.292 113.653C170.357 113.796 170.392 113.952 170.401 114.121C170.401 114.289 170.379 114.445 170.318 114.597C170.258 114.748 170.171 114.874 170.063 114.986C169.955 115.099 169.825 115.185 169.678 115.25C169.531 115.315 169.375 115.345 169.21 115.341C168.951 115.324 168.739 115.255 168.57 115.129C168.401 115.003 168.276 114.852 168.198 114.679C168.12 114.506 168.081 114.315 168.089 114.112C168.098 113.909 168.141 113.722 168.232 113.554C168.323 113.385 168.449 113.242 168.617 113.129C168.786 113.017 168.994 112.961 169.241 112.961L169.232 112.956Z" fill="#3B5A92"/>
<path d="M176.343 109.879C176.217 109.879 176.127 109.905 176.07 109.962C176.014 110.018 175.988 110.096 175.988 110.2V111.524C175.988 111.628 176.018 111.714 176.075 111.779C176.131 111.844 176.235 111.879 176.378 111.879H173.106V101.436H175.109V109.871H176.347L176.343 109.879Z" fill="#3B5A92"/>
<path d="M177.927 109.88V104.354H179.996V111.884H175.992C175.837 111.884 175.715 111.854 175.629 111.798C175.542 111.741 175.499 111.655 175.499 111.542V110.235C175.499 110.114 175.542 110.023 175.629 109.967C175.715 109.911 175.837 109.88 175.992 109.88H177.927ZM178.832 113.031C178.992 113.031 179.139 113.061 179.277 113.118C179.416 113.174 179.537 113.256 179.641 113.36C179.745 113.464 179.827 113.585 179.892 113.728C179.957 113.871 179.991 114.027 180 114.195C180 114.364 179.978 114.52 179.918 114.671C179.857 114.823 179.771 114.948 179.663 115.061C179.554 115.173 179.424 115.26 179.277 115.325C179.13 115.39 178.974 115.42 178.81 115.416C178.645 115.416 178.49 115.381 178.342 115.316C178.195 115.251 178.07 115.156 177.966 115.039C177.862 114.922 177.784 114.784 177.728 114.628C177.672 114.472 177.654 114.304 177.672 114.122C177.689 113.97 177.728 113.827 177.793 113.693C177.858 113.559 177.94 113.442 178.044 113.347C178.148 113.252 178.265 113.174 178.399 113.118C178.533 113.061 178.676 113.035 178.832 113.035V113.031Z" fill="#3B5A92"/>
<path d="M22.4836 14.0359C22.0811 14.6938 21.7262 15.3949 21.2631 16.0095C18.688 19.4069 17.6752 23.2458 17.7618 27.4786C17.8224 30.5038 17.8094 33.5507 17.5584 36.563C17.2338 40.5057 14.6543 43.479 12.7241 46.712C12.2177 47.5603 11.6074 48.3523 10.9972 49.1314C10.1273 50.2437 10.4475 51.0746 11.5642 51.7022C12.3735 52.1609 13.2477 52.5029 14.0571 52.9573C16.9308 54.563 17.4848 56.991 15.6151 59.6656C14.5591 61.1761 14.7669 61.7863 16.6106 62.3749C17.8397 62.7688 19.0905 63.0847 20.3326 63.4353C20.3456 63.6733 20.3586 63.9114 20.3716 64.1494C18.8005 64.6904 17.2338 65.2314 15.3598 65.8763C15.9744 66.5687 16.3639 67.1184 16.8573 67.5425C18.3461 68.8193 18.8654 70.3341 18.2249 72.2297C17.9306 73.1126 17.7358 74.0258 17.5021 74.9304C17.0347 76.7568 17.5151 77.8777 19.2203 78.6221C21.3973 79.5786 23.6565 79.5483 25.8767 78.8125C27.3396 78.3278 27.9715 77.2675 27.6296 75.6661C27.1578 73.4415 26.7337 71.2083 26.3442 68.9708C26.2533 68.4298 26.1667 67.6031 26.4653 67.3305C28.2701 65.6599 30.1874 64.1148 32.3124 62.3187C32.5418 63.167 32.5634 63.6127 32.5721 63.9849C32.6933 67.8888 32.953 71.719 33.0222 75.6228C33.0352 76.4928 32.9313 77.3713 32.7842 78.2326C32.2475 81.3704 30.7197 82.9328 27.5906 83.556C24.1196 84.2485 20.7221 84.2744 17.2468 83.1968C13.7195 82.1018 12.3865 78.938 12.9621 75.6358C13.1612 74.4932 13.4685 73.342 13.9272 72.286C14.5202 70.927 14.3211 69.9359 13.0487 69.1612C12.802 69.0097 12.5812 68.8149 12.3605 68.6245C10.8803 67.3348 10.7245 66.586 11.9147 65.0842C12.5899 64.2316 12.4644 63.7599 11.7243 63.0588C10.0061 61.4314 10.0148 60.977 11.4473 59.09C11.7286 58.7178 12.0056 58.3456 12.2783 57.9691C13.1395 56.7789 12.789 56.1081 11.4213 55.7056C10.5428 55.4459 9.65553 55.0866 8.88515 54.5933C6.69087 53.1867 6.05033 51.2304 7.17128 48.863C7.93733 47.2444 8.91977 45.695 10.0147 44.2711C13.9965 39.1078 15.758 33.3213 15.416 26.8077C15.1261 21.229 18.2725 17.3252 21.9946 13.7676C22.1547 13.8585 22.3148 13.9494 22.4793 14.0446L22.4836 14.0359Z" fill="#29B4C3"/>
<path d="M72.5277 68.5121C73.2851 68.5121 74.1507 68.5121 75.012 68.5121C82.4128 68.5121 89.8093 68.4905 97.2101 68.5294C98.4133 68.5381 99.0148 68.3347 98.9456 66.9194C98.7552 63.1151 99.8501 61.5008 102.313 60.1678C103.395 59.5229 104.317 58.6141 105.507 57.6662C105.606 58.2981 105.719 58.666 105.719 59.0382C105.732 63.9937 105.74 68.9492 105.728 73.9091C105.719 76.402 104.853 77.2503 102.339 77.2503C85.1524 77.2503 67.9617 77.2243 50.7754 77.2892C49.0398 77.2979 48.5421 76.6703 48.5551 75.0949C48.5681 73.3464 48.5032 71.5936 48.356 69.8538C48.2565 68.6939 48.7585 68.4818 49.7713 68.4905C54.1425 68.5294 58.5094 68.5121 62.8807 68.5035C64.785 68.5035 65.8453 67.547 65.815 65.885C65.7847 64.4135 64.8672 63.6994 62.8807 63.6734C59.5611 63.6258 56.2416 63.5609 52.922 63.5955C51.6583 63.6085 51.1649 63.2493 51.2038 61.9033C51.2644 59.8086 51.0956 57.7095 51.087 55.6105C51.087 55.1387 51.2904 54.2991 51.4938 54.2688C52.0608 54.1866 52.6797 54.4246 53.2683 54.5717C53.4198 54.6107 53.5929 54.7708 53.6491 54.9137C54.6359 57.333 56.6657 57.2031 58.7561 57.1252C61.4914 57.0214 64.231 57.0473 66.9663 57.017C70.4979 56.9781 72.5277 58.9646 72.532 62.4746C72.532 64.3832 72.532 66.2875 72.532 68.5078L72.5277 68.5121Z" fill="#29B4C3"/>
<path d="M162.697 58.2753C162.697 63.932 162.753 69.5886 162.662 75.241C162.64 76.6649 161.623 77.2751 160.139 77.2751C147.376 77.2535 134.617 77.2794 121.854 77.2924C118.763 77.2924 115.678 77.3184 112.592 77.2967C109.311 77.2751 108.268 76.2364 108.234 72.8173C108.164 65.6459 108.147 58.4701 108.104 51.2987C108.091 49.1996 107.866 47.0746 108.13 45.0101C108.294 43.742 108.974 42.3614 109.835 41.4006C111.047 40.0503 112.644 39.0419 114.544 37.5098C114.721 38.8471 114.925 39.6478 114.925 40.4528C114.942 49.0827 114.977 57.7127 114.877 66.3427C114.855 68.1864 115.474 68.5542 117.184 68.5456C129.419 68.4763 141.658 68.511 153.894 68.511C156.213 68.511 156.122 68.511 156.2 66.2388C156.231 65.3386 156.56 64.4686 157.144 63.7805C158.801 61.8243 160.641 60.0238 162.398 58.1542C162.545 58.2147 162.554 58.2147 162.701 58.2753H162.697Z" fill="#29B4C3"/>
<path d="M145.138 78.2969H135.141V84.6114H145.138V78.2969Z" fill="#29B4C3"/>
<path d="M87.8964 78.2363H77.8988V84.5508H87.8964V78.2363Z" fill="#29B4C3"/>
<path d="M98.7856 78.2363H88.788V84.5508H98.7856V78.2363Z" fill="#29B4C3"/>
<path d="M43.0586 37.7824C43.2923 38.0161 43.4222 38.332 43.4222 38.6609V76.0459C43.4222 76.734 42.8682 77.288 42.18 77.288H38.0555C37.3717 77.288 36.8134 76.7297 36.8134 76.0459V41.7987C36.8134 41.4092 36.9951 41.0456 37.3024 40.8076L41.427 37.6698C41.9204 37.2933 42.6172 37.3409 43.0586 37.778V37.7824Z" fill="#29B4C3"/>
<path d="M177.905 23.1164C177.52 23.428 177.217 24.1378 176.923 24.5446C176.568 25.0337 176.2 25.5098 175.815 25.9772C175.083 26.8644 174.291 27.7127 173.421 28.4701C171.738 29.933 169.738 30.976 167.708 31.8805C163.489 33.7675 159.139 35.3689 154.668 36.5547C154.041 36.7192 153.413 36.8793 152.781 37.0265C138.642 40.359 124.775 39.3852 111.627 33.3174C102.036 28.8813 92.8867 23.4886 83.5729 18.4509C76.2024 14.4648 68.9833 10.2018 61.0328 7.39292C53.8484 4.86106 46.5645 4.80912 39.1463 5.92574C33.9052 6.70477 29.0405 8.18061 24.9679 11.7036C24.8035 11.8421 24.5654 11.881 24.3663 11.9546C27.4868 7.21547 31.6373 3.81802 36.965 1.97431C43.734 -0.375775 50.702 -0.250264 57.696 0.437882C68.1394 1.46361 77.254 6.14214 86.3514 10.9072C94.8515 15.3694 103.36 19.8055 112.038 23.9084C119.859 27.5959 128.082 30.1753 136.772 30.9673C143.264 31.5689 149.683 31.1448 156.053 29.7901C160.654 28.825 165.268 27.8858 169.868 26.8947C170.374 26.7909 170.877 26.6524 171.387 26.4966C172.495 26.1633 173.577 25.7348 174.603 25.1982C176.546 24.1768 177.758 23.2376 177.905 23.1207V23.1164Z" fill="#29B4C3"/>
</g>
<defs>
<clipPath id="clip0_2275_26715">
<rect width="180" height="140" fill="white"/>
</clipPath>
</defs>
</svg>
