<svg width="18" height="18" viewBox="0 0 18 18" fill="none" xmlns="http://www.w3.org/2000/svg">
<path d="M14.475 5.9406V9.80312C14.475 12.1131 13.155 13.1031 11.175 13.1031H4.58247C4.24497 13.1031 3.92247 13.0731 3.62247 13.0056C3.43497 12.9756 3.25497 12.9231 3.08997 12.8631C1.96497 12.4431 1.28247 11.4681 1.28247 9.80312V5.9406C1.28247 3.6306 2.60247 2.64062 4.58247 2.64062H11.175C12.855 2.64062 14.0625 3.35312 14.385 4.98062C14.4375 5.28062 14.475 5.5881 14.475 5.9406Z" stroke="#3B5A92" stroke-width="1.125" stroke-miterlimit="10" stroke-linecap="round" stroke-linejoin="round"/>
<path d="M16.7258 8.19044V12.053C16.7258 14.363 15.4058 15.3529 13.4258 15.3529H6.83329C6.27829 15.3529 5.7758 15.278 5.3408 15.113C4.4483 14.783 3.84079 14.1005 3.62329 13.0055C3.92329 13.073 4.24579 13.1029 4.58329 13.1029H11.1758C13.1558 13.1029 14.4758 12.113 14.4758 9.80296V5.94044C14.4758 5.58794 14.4458 5.27297 14.3858 4.98047C15.8108 5.28047 16.7258 6.28544 16.7258 8.19044Z" stroke="#3B5A92" stroke-width="1.125" stroke-miterlimit="10" stroke-linecap="round" stroke-linejoin="round"/>
<path d="M7.87381 9.85455C8.96733 9.85455 9.85382 8.96807 9.85382 7.87454C9.85382 6.78102 8.96733 5.89453 7.87381 5.89453C6.78029 5.89453 5.8938 6.78102 5.8938 7.87454C5.8938 8.96807 6.78029 9.85455 7.87381 9.85455Z" stroke="#3B5A92" stroke-width="1.125" stroke-miterlimit="10" stroke-linecap="round" stroke-linejoin="round"/>
<path d="M3.58496 6.22656V9.52658" stroke="#3B5A92" stroke-width="1.125" stroke-miterlimit="10" stroke-linecap="round" stroke-linejoin="round"/>
<path d="M12.1663 6.22656V9.52658" stroke="#3B5A92" stroke-width="1.125" stroke-miterlimit="10" stroke-linecap="round" stroke-linejoin="round"/>
</svg>
