<svg width="20" height="20" viewBox="0 0 20 20" fill="none" xmlns="http://www.w3.org/2000/svg">
<path d="M10.0167 2.42188C7.25841 2.42188 5.01674 4.66354 5.01674 7.42187V9.83021C5.01674 10.3385 4.80007 11.1135 4.54174 11.5469L3.58341 13.1385C2.99174 14.1219 3.40007 15.2135 4.48341 15.5802C8.07507 16.7802 11.9501 16.7802 15.5417 15.5802C16.5501 15.2469 16.9917 14.0552 16.4417 13.1385L15.4834 11.5469C15.2334 11.1135 15.0167 10.3385 15.0167 9.83021V7.42187C15.0167 4.67187 12.7667 2.42188 10.0167 2.42188Z" stroke="#1E1E1E" stroke-width="1.25" stroke-miterlimit="10" stroke-linecap="round"/>
<path d="M11.5582 2.66719C11.2999 2.59219 11.0332 2.53385 10.7582 2.50052C9.95819 2.40052 9.19152 2.45885 8.47485 2.66719C8.71652 2.05052 9.31652 1.61719 10.0165 1.61719C10.7165 1.61719 11.3165 2.05052 11.5582 2.66719Z" stroke="#1E1E1E" stroke-width="1.25" stroke-miterlimit="10" stroke-linecap="round" stroke-linejoin="round"/>
<path d="M12.5166 15.8828C12.5166 17.2578 11.3916 18.3828 10.0166 18.3828C9.33327 18.3828 8.69993 18.0995 8.24993 17.6495C7.79993 17.1995 7.5166 16.5661 7.5166 15.8828" stroke="#292D32" stroke-width="1.25" stroke-miterlimit="10"/>
</svg>
