<svg width="20" height="21" viewBox="0 0 20 21" fill="none" xmlns="http://www.w3.org/2000/svg">
<path d="M10 1.87793C12.0857 1.87803 13.7982 3.52463 13.9033 5.58496L13.9082 5.78613C13.8998 7.90078 12.2494 9.61098 10.1582 9.68555H10.0859C10.0291 9.67935 9.97132 9.68091 9.91699 9.68555C7.72903 9.61137 6.0919 7.89609 6.0918 5.78613C6.0918 3.63292 7.84679 1.87793 10 1.87793ZM10 2.29395C8.07821 2.29395 6.50781 3.86435 6.50781 5.78613C6.50791 7.67722 7.98599 9.20217 9.86816 9.26855L9.91699 9.27051L9.9502 9.26367C9.95879 9.26319 9.97284 9.2627 9.99121 9.2627L10.1182 9.26758L10.1436 9.26953L10.1689 9.26855C11.9681 9.18592 13.3908 7.75151 13.4863 5.96191L13.4912 5.78809V5.78613C13.4912 3.86441 11.9217 2.29405 10 2.29395Z" fill="#2A2B2D" stroke="#2A2B2D" stroke-width="0.833333"/>
<path d="M10.1413 19.2161C8.50801 19.2161 6.86634 18.7995 5.62467 17.9661C4.46634 17.1995 3.83301 16.1495 3.83301 15.0078C3.83301 13.8661 4.46634 12.8078 5.62467 12.0328C8.12467 10.3745 12.1747 10.3745 14.658 12.0328C15.808 12.7995 16.4497 13.8495 16.4497 14.9911C16.4497 16.1328 15.8163 17.1911 14.658 17.9661C13.408 18.7995 11.7747 19.2161 10.1413 19.2161ZM6.31634 13.0828C5.51634 13.6161 5.08301 14.2995 5.08301 15.0161C5.08301 15.7245 5.52467 16.4078 6.31634 16.9328C8.39134 18.3245 11.8913 18.3245 13.9663 16.9328C14.7663 16.3995 15.1997 15.7161 15.1997 14.9995C15.1997 14.2911 14.758 13.6078 13.9663 13.0828C11.8913 11.6995 8.39134 11.6995 6.31634 13.0828Z" fill="#2A2B2D"/>
</svg>
