<svg width="20" height="21" viewBox="0 0 20 21" fill="none" xmlns="http://www.w3.org/2000/svg">
<path d="M7.63338 9.55866C7.55005 9.55033 7.45005 9.55033 7.35838 9.55866C5.37505 9.49199 3.80005 7.86699 3.80005 5.86699C3.80005 3.82533 5.45005 2.16699 7.50005 2.16699C9.54172 2.16699 11.2 3.82533 11.2 5.86699C11.1917 7.86699 9.61672 9.49199 7.63338 9.55866Z" stroke="#C1C1C1" stroke-width="1.25" stroke-linecap="round" stroke-linejoin="round"/>
<path d="M13.675 3.83301C15.2916 3.83301 16.5916 5.14134 16.5916 6.74967C16.5916 8.32467 15.3417 9.60801 13.7833 9.66634C13.7167 9.65801 13.6417 9.65801 13.5667 9.66634" stroke="#C1C1C1" stroke-width="1.25" stroke-linecap="round" stroke-linejoin="round"/>
<path d="M3.4666 12.633C1.44993 13.983 1.44993 16.183 3.4666 17.5247C5.75827 19.058 9.5166 19.058 11.8083 17.5247C13.8249 16.1747 13.8249 13.9747 11.8083 12.633C9.52494 11.108 5.7666 11.108 3.4666 12.633Z" stroke="#C1C1C1" stroke-width="1.25" stroke-linecap="round" stroke-linejoin="round"/>
<path d="M15.2833 17.167C15.8833 17.042 16.45 16.8003 16.9167 16.442C18.2167 15.467 18.2167 13.8587 16.9167 12.8837C16.4583 12.5337 15.9 12.3003 15.3083 12.167" stroke="#C1C1C1" stroke-width="1.25" stroke-linecap="round" stroke-linejoin="round"/>
</svg>
