<svg width="18" height="14" viewBox="0 0 18 14" fill="none" xmlns="http://www.w3.org/2000/svg">
<path d="M14.475 3.93962V7.80214C14.475 10.1121 13.155 11.1021 11.175 11.1021H4.58247C4.24497 11.1021 3.92247 11.0722 3.62247 11.0047C3.43497 10.9747 3.25497 10.9222 3.08997 10.8622C1.96497 10.4422 1.28247 9.46714 1.28247 7.80214V3.93962C1.28247 1.62962 2.60247 0.639648 4.58247 0.639648H11.175C12.855 0.639648 14.0625 1.35214 14.385 2.97964C14.4375 3.27964 14.475 3.58712 14.475 3.93962Z" stroke="#3B5A92" stroke-width="1.125" stroke-miterlimit="10" stroke-linecap="round" stroke-linejoin="round"/>
<path d="M16.7258 6.18947V10.052C16.7258 12.362 15.4058 13.352 13.4258 13.352H6.83329C6.27829 13.352 5.7758 13.277 5.3408 13.112C4.4483 12.782 3.84079 12.0995 3.62329 11.0045C3.92329 11.072 4.24579 11.102 4.58329 11.102H11.1758C13.1558 11.102 14.4758 10.112 14.4758 7.80199V3.93947C14.4758 3.58697 14.4458 3.27199 14.3858 2.97949C15.8108 3.27949 16.7258 4.28447 16.7258 6.18947Z" stroke="#3B5A92" stroke-width="1.125" stroke-miterlimit="10" stroke-linecap="round" stroke-linejoin="round"/>
<path d="M7.87381 7.85455C8.96733 7.85455 9.85382 6.96807 9.85382 5.87454C9.85382 4.78102 8.96733 3.89453 7.87381 3.89453C6.78029 3.89453 5.8938 4.78102 5.8938 5.87454C5.8938 6.96807 6.78029 7.85455 7.87381 7.85455Z" stroke="#3B5A92" stroke-width="1.125" stroke-miterlimit="10" stroke-linecap="round" stroke-linejoin="round"/>
<path d="M3.58496 4.22461V7.52463" stroke="#3B5A92" stroke-width="1.125" stroke-miterlimit="10" stroke-linecap="round" stroke-linejoin="round"/>
<path d="M12.1663 4.22461V7.52463" stroke="#3B5A92" stroke-width="1.125" stroke-miterlimit="10" stroke-linecap="round" stroke-linejoin="round"/>
</svg>
