<svg width="20" height="20" viewBox="0 0 20 20" fill="none" xmlns="http://www.w3.org/2000/svg">
<path d="M6.66663 10.168H12.5" stroke="#333333" stroke-width="1.25" stroke-miterlimit="10" stroke-linecap="round" stroke-linejoin="round"/>
<path d="M6.66663 13.5H10.3166" stroke="#333333" stroke-width="1.25" stroke-miterlimit="10" stroke-linecap="round" stroke-linejoin="round"/>
<path d="M8.33329 5.0013H11.6666C13.3333 5.0013 13.3333 4.16797 13.3333 3.33464C13.3333 1.66797 12.5 1.66797 11.6666 1.66797H8.33329C7.49996 1.66797 6.66663 1.66797 6.66663 3.33464C6.66663 5.0013 7.49996 5.0013 8.33329 5.0013Z" stroke="#333333" stroke-width="1.25" stroke-miterlimit="10" stroke-linecap="round" stroke-linejoin="round"/>
<path d="M13.3333 3.35156C16.1083 3.50156 17.5 4.52656 17.5 8.3349V13.3349C17.5 16.6682 16.6667 18.3349 12.5 18.3349H7.5C3.33333 18.3349 2.5 16.6682 2.5 13.3349V8.3349C2.5 4.5349 3.89167 3.50156 6.66667 3.35156" stroke="#333333" stroke-width="1.25" stroke-miterlimit="10" stroke-linecap="round" stroke-linejoin="round"/>
</svg>
