<svg width="20" height="20" viewBox="0 0 20 20" fill="none" xmlns="http://www.w3.org/2000/svg">
<path d="M4.55004 15.407V12.9737C4.55004 12.1654 5.18337 11.4404 6.08337 11.4404C6.89171 11.4404 7.61671 12.0737 7.61671 12.9737V15.3154C7.61671 16.9404 6.26671 18.2904 4.64171 18.2904C3.01671 18.2904 1.66671 16.932 1.66671 15.3154V10.182C1.57504 5.4987 5.27504 1.70703 9.95837 1.70703C14.6417 1.70703 18.3334 5.4987 18.3334 10.0904V15.2237C18.3334 16.8487 16.9834 18.1987 15.3584 18.1987C13.7334 18.1987 12.3834 16.8487 12.3834 15.2237V12.882C12.3834 12.0737 13.0167 11.3487 13.9167 11.3487C14.725 11.3487 15.45 11.982 15.45 12.882V15.407" stroke="#333333" stroke-width="1.5" stroke-linecap="round" stroke-linejoin="round"/>
</svg>
