<svg width="20" height="20" viewBox="0 0 20 20" fill="none" xmlns="http://www.w3.org/2000/svg">
<path d="M14.1666 17.0837H5.83329C3.33329 17.0837 1.66663 15.8337 1.66663 12.917V7.08366C1.66663 4.16699 3.33329 2.91699 5.83329 2.91699H14.1666C16.6666 2.91699 18.3333 4.16699 18.3333 7.08366V12.917C18.3333 15.8337 16.6666 17.0837 14.1666 17.0837Z" stroke="#333333" stroke-width="1.5" stroke-miterlimit="10" stroke-linecap="round" stroke-linejoin="round"/>
<path d="M10 12.5C11.3807 12.5 12.5 11.3807 12.5 10C12.5 8.61929 11.3807 7.5 10 7.5C8.61929 7.5 7.5 8.61929 7.5 10C7.5 11.3807 8.61929 12.5 10 12.5Z" stroke="#333333" stroke-width="1.5" stroke-miterlimit="10" stroke-linecap="round" stroke-linejoin="round"/>
<path d="M7.08333 5H5.83333C4.68333 5 3.75 5.93333 3.75 7.08333V8.33333" stroke="#333333" stroke-width="1.5" stroke-miterlimit="10" stroke-linecap="round" stroke-linejoin="round"/>
<path d="M12.9166 5H14.1666C15.3166 5 16.25 5.93333 16.25 7.08333V8.33333" stroke="#333333" stroke-width="1.5" stroke-miterlimit="10" stroke-linecap="round" stroke-linejoin="round"/>
<path d="M7.08333 15.0003H5.83333C4.68333 15.0003 3.75 14.067 3.75 12.917V11.667" stroke="#333333" stroke-width="1.5" stroke-miterlimit="10" stroke-linecap="round" stroke-linejoin="round"/>
<path d="M12.9166 15.0003H14.1666C15.3166 15.0003 16.25 14.067 16.25 12.917V11.667" stroke="#333333" stroke-width="1.5" stroke-miterlimit="10" stroke-linecap="round" stroke-linejoin="round"/>
</svg>
