<svg width="20" height="20" viewBox="0 0 20 20" fill="none" xmlns="http://www.w3.org/2000/svg">
<path d="M16.0833 6.59925V10.8909C16.0833 13.4576 14.6166 14.5576 12.4166 14.5576H5.09159C4.71659 14.5576 4.35826 14.5243 4.02492 14.4493C3.81659 14.416 3.6166 14.3576 3.43326 14.291C2.18326 13.8243 1.42493 12.7409 1.42493 10.8909V6.59925C1.42493 4.03259 2.89159 2.93262 5.09159 2.93262H12.4166C14.2833 2.93262 15.6249 3.72428 15.9833 5.53261C16.0416 5.86595 16.0833 6.20759 16.0833 6.59925Z" stroke="#333333" stroke-width="1.25" stroke-miterlimit="10" stroke-linecap="round" stroke-linejoin="round"/>
<path d="M18.5842 9.09984V13.3915C18.5842 15.9582 17.1176 17.0582 14.9176 17.0582H7.59254C6.97588 17.0582 6.41755 16.9749 5.93422 16.7915C4.94255 16.4249 4.26755 15.6665 4.02588 14.4499C4.35921 14.5249 4.71754 14.5582 5.09254 14.5582H12.4176C14.6176 14.5582 16.0842 13.4582 16.0842 10.8915V6.59984C16.0842 6.20818 16.0509 5.8582 15.9842 5.5332C17.5676 5.86654 18.5842 6.98318 18.5842 9.09984Z" stroke="#333333" stroke-width="1.25" stroke-miterlimit="10" stroke-linecap="round" stroke-linejoin="round"/>
<path d="M8.74872 10.9498C9.96374 10.9498 10.9487 9.96484 10.9487 8.74982C10.9487 7.53479 9.96374 6.5498 8.74872 6.5498C7.53369 6.5498 6.54871 7.53479 6.54871 8.74982C6.54871 9.96484 7.53369 10.9498 8.74872 10.9498Z" stroke="#333333" stroke-width="1.25" stroke-miterlimit="10" stroke-linecap="round" stroke-linejoin="round"/>
<path d="M3.9834 6.91602V10.5827" stroke="#333333" stroke-width="1.25" stroke-miterlimit="10" stroke-linecap="round" stroke-linejoin="round"/>
<path d="M13.5181 6.91602V10.5827" stroke="#292D32" stroke-width="1.25" stroke-miterlimit="10" stroke-linecap="round" stroke-linejoin="round"/>
</svg>
