<svg width="20" height="20" viewBox="0 0 20 20" fill="none" xmlns="http://www.w3.org/2000/svg">
<path d="M2.5083 9.35156V13.0932C2.5083 16.8349 4.0083 18.3349 7.74997 18.3349H12.2416C15.9833 18.3349 17.4833 16.8349 17.4833 13.0932V9.35156" stroke="#333333" stroke-width="1.5" stroke-linecap="round" stroke-linejoin="round"/>
<path d="M9.99999 10.0013C11.525 10.0013 12.65 8.75964 12.5 7.23464L11.95 1.66797H8.05832L7.49999 7.23464C7.34999 8.75964 8.47499 10.0013 9.99999 10.0013Z" stroke="#333333" stroke-width="1.5" stroke-linecap="round" stroke-linejoin="round"/>
<path d="M15.2583 10.0013C16.9416 10.0013 18.175 8.63464 18.0083 6.95964L17.775 4.66797C17.475 2.5013 16.6416 1.66797 14.4583 1.66797H11.9166L12.5 7.50964C12.6416 8.88464 13.8833 10.0013 15.2583 10.0013Z" stroke="#333333" stroke-width="1.5" stroke-linecap="round" stroke-linejoin="round"/>
<path d="M4.70002 10.0013C6.07502 10.0013 7.31669 8.88464 7.45002 7.50964L7.63336 5.66797L8.03336 1.66797H5.49169C3.30836 1.66797 2.47502 2.5013 2.17502 4.66797L1.95002 6.95964C1.78336 8.63464 3.01669 10.0013 4.70002 10.0013Z" stroke="#333333" stroke-width="1.5" stroke-linecap="round" stroke-linejoin="round"/>
<path d="M9.99996 14.168C8.60829 14.168 7.91663 14.8596 7.91663 16.2513V18.3346H12.0833V16.2513C12.0833 14.8596 11.3916 14.168 9.99996 14.168Z" stroke="#292D32" stroke-width="1.5" stroke-linecap="round" stroke-linejoin="round"/>
</svg>
