<svg width="20" height="20" viewBox="0 0 20 20" fill="none" xmlns="http://www.w3.org/2000/svg">
<path d="M4.58329 8.33333C6.19412 8.33333 7.49996 7.0275 7.49996 5.41667C7.49996 3.80584 6.19412 2.5 4.58329 2.5C2.97246 2.5 1.66663 3.80584 1.66663 5.41667C1.66663 7.0275 2.97246 8.33333 4.58329 8.33333Z" stroke="white" stroke-width="1.25" stroke-linecap="round" stroke-linejoin="round"/>
<path d="M4.58329 17.5013C6.19412 17.5013 7.49996 16.1955 7.49996 14.5846C7.49996 12.9738 6.19412 11.668 4.58329 11.668C2.97246 11.668 1.66663 12.9738 1.66663 14.5846C1.66663 16.1955 2.97246 17.5013 4.58329 17.5013Z" stroke="white" stroke-width="1.25" stroke-linecap="round" stroke-linejoin="round"/>
<path d="M18.3334 5L7.20837 13.3167" stroke="white" stroke-width="1.25" stroke-linecap="round" stroke-linejoin="round"/>
<path d="M18.3334 14.9734L7.20837 6.64844" stroke="white" stroke-width="1.25" stroke-linecap="round" stroke-linejoin="round"/>
</svg>
