<svg width="20" height="20" viewBox="0 0 20 20" fill="none" xmlns="http://www.w3.org/2000/svg">
<path d="M18.3334 5.00033V7.01699C18.3334 8.33366 17.5 9.16699 16.1834 9.16699H13.3334V3.34199C13.3334 2.41699 14.0917 1.66699 15.0167 1.66699C15.9251 1.67533 16.7584 2.04199 17.3584 2.64199C17.9584 3.25033 18.3334 4.08366 18.3334 5.00033Z" stroke="#333333" stroke-width="1.5" stroke-miterlimit="10" stroke-linecap="round" stroke-linejoin="round"/>
<path d="M1.66663 5.83366V17.5003C1.66663 18.192 2.44994 18.5837 2.99994 18.167L4.42496 17.1003C4.75829 16.8503 5.22496 16.8837 5.52496 17.1837L6.90827 18.5753C7.23327 18.9003 7.76664 18.9003 8.09164 18.5753L9.49164 17.1753C9.7833 16.8837 10.25 16.8503 10.575 17.1003L12 18.167C12.55 18.5753 13.3333 18.1837 13.3333 17.5003V3.33366C13.3333 2.41699 14.0833 1.66699 15 1.66699H5.83329H4.99996C2.49996 1.66699 1.66663 3.15866 1.66663 5.00033V5.83366Z" stroke="#333333" stroke-width="1.5" stroke-miterlimit="10" stroke-linecap="round" stroke-linejoin="round"/>
<path d="M5 7.5H10" stroke="#333333" stroke-width="1.5" stroke-linecap="round" stroke-linejoin="round"/>
<path d="M5.625 10.833H9.375" stroke="#333333" stroke-width="1.5" stroke-linecap="round" stroke-linejoin="round"/>
</svg>
